<?xml version="1.0" encoding="utf-8"?>
<!-- Generator: Adobe Illustrator 27.9.0, SVG Export Plug-In . SVG Version: 6.00 Build 0)  -->
<svg version="1.1" id="Layer_1" xmlns="http://www.w3.org/2000/svg" xmlns:xlink="http://www.w3.org/1999/xlink" x="0px" y="0px"
	 viewBox="0 0 860.461 603.344" style="enable-background:new 0 0 860.461 603.344;" xml:space="preserve">
<style type="text/css">
	.st0{fill:#231F20;}
	.st1{fill:#FFFFFF;}
	.st2{fill:#CFE5C1;}
	.st3{fill:#FCE0D9;}
	.st4{fill:#F85C41;}
	.st5{fill:#493227;}
	.st6{fill:#81C6F5;}
	.st7{fill:#149AC9;}
	.st8{fill:#FFCB00;}
	.st9{fill:#DB9C00;}
	.st10{fill:#FFC6BB;}
	.st11{fill:#FF7E1E;}
</style>
<g>
	<g>
		<path class="st0" d="M844.758,221.185c-8.144-18.663-20.277-34.772-35.344-47.262l8.647-29.336
			c15.534-52.692-13.435-108.884-64.577-125.262c-9.743-3.12-19.831-4.702-29.983-4.702c-16.368,0-32.657,4.174-47.102,12.071
			c-23.267,12.715-40.238,33.823-47.786,59.431l-3.719,12.612c-1.742,5.911-2.255,11.901-1.689,17.689
			c-13.309,1.051-26.38,4.303-38.777,9.6c-2.468-0.575-4.948-1.024-7.417-1.369V93.337c0-16.045-12.877-29.053-28.762-29.053
			h-236.94c-15.885,0-28.762,13.007-28.762,29.053v28.999c-5.503-0.474-10.556-0.476-14.707-0.476c-1.848,0-4.166-0.061-6.619-0.126
			c-3.084-0.081-6.58-0.173-10.202-0.173c-10.42,0-38.874,0.008-55.957,19.879c-9.844-11.634-24.12-16.788-38.188-17.383
			c-8.691-1.032-22.127-1.931-54.52-1.931c-0.996,0-1.991,0.04-2.984,0.12c-26.317,2.113-47.788,9.462-63.818,21.84
			C15.4,159.646,4.302,183.021,4.302,209.905c0,25.857,8.885,48.006,25.758,64.396c-19.912,11.257-22.116,29.574-22.219,36.203
			l-0.323,24.075c-0.023,1.655,0.062,3.309,0.254,4.951c2.204,18.956,14.66,34.334,33.32,41.137
			c8.434,3.075,18.114,4.507,30.463,4.507c0.001,0,0.003,0,0.004,0c5.419,0,10.663-0.263,15.29-0.494
			c3.368-0.169,6.548-0.328,8.756-0.328c7.384,0,15.567-0.184,24.068-0.938c0.008,0.186,0.004,0.371,0.015,0.557l1.285,21.669
			c0.021,0.34,0.045,0.678,0.074,1.017c2.809,32.673,24.644,42.572,38.172,45.561l-21.447,35.506
			c-5.938,7.357-14.822,19.605-16.381,36.506c-0.141,1.537-0.19,3.079-0.146,4.621l0.626,21.923v0.523
			c0,36.489,25.11,46.295,32.807,48.431c2.839,0.788,5.76,1.237,8.702,1.338c35.473,1.211,63.261,1.826,82.592,1.826
			c8.482,0,13.509-0.119,16.512-0.19c0.79-0.019,1.4-0.036,1.892-0.041c0.5,0.02,1,0.03,1.499,0.03c1.714,0,3.427-0.119,5.126-0.354
			c7.694-1.068,14.215-3.377,19.635-6.552c10.93,4.86,23.008,7.56,35.695,7.56h18.199c19.92,0,36.196-7.589,48.539-16.349
			c6.166,7.049,13.354,10.673,17.699,12.359c3.102,1.205,6.348,1.989,9.654,2.333l12.854,1.337c1.281,0.133,2.567,0.2,3.855,0.2
			h1.929c8.282,0,18.36-0.41,30.457-3.411c9.097-2.103,18.167-7.043,25.02-14.24c5.638,6.209,16.947,16.258,35.22,17.547
			c1.897,0.153,4.045,0.224,6.693,0.224c0.001,0,0.003,0,0.005,0c2.901,0,5.777-0.086,7.004-0.123l0.061-0.001
			c2.004-0.027,4.218-0.177,7.709-0.42c1.8-0.126,5.152-0.36,6.084-0.378c1.471,0,2.94-0.087,4.401-0.261
			c7.394-0.879,13.578-2.714,18.785-5.124c7.162,3.155,15.356,4.852,24.363,4.852h76.802c39.328,0,57.241-25.393,57.241-48.987
			v-3.746c0-0.181,0.022-0.433,0.13-1.491c0.204-1.996,0.512-5.012,0.512-8.942c0-6.696-0.001-19.625-7.571-31.731
			c5.034-7.83,7.571-17.699,7.571-29.527v-19.263c0-1.391-0.076-2.782-0.226-4.164c-0.868-7.954-3.217-14.294-6.168-19.31
			c1.838-3.022,3.348-6.302,4.496-9.812c1.002-3.063,1.613-6.243,1.819-9.464l0.086-1.333l39.029-13.563
			c1.791-0.623,3.534-1.381,5.212-2.268c11.055-5.846,21.273-13.283,30.405-22.13c0.948-0.803,1.858-1.654,2.728-2.552
			C855.948,333.29,867.113,271.994,844.758,221.185z"/>
		<path class="st1" d="M848.945,206.562c-8.226-18.663-20.481-34.772-35.701-47.262l8.734-29.336
			c15.691-52.692-13.571-108.884-65.23-125.262C746.907,1.583,736.718,0,726.464,0c-16.533,0-32.987,4.174-47.578,12.071
			c-23.502,12.715-40.644,33.823-48.269,59.431l-3.756,12.612c-1.759,5.911-2.278,11.901-1.706,17.689
			c-13.443,1.051-26.646,4.303-39.169,9.6c-2.493-0.575-4.998-1.024-7.492-1.369V78.714c0-16.045-13.007-29.053-29.052-29.053
			H310.107c-16.045,0-29.052,13.007-29.052,29.053v28.999c-5.558-0.474-10.663-0.476-14.855-0.476c-1.866,0-4.208-0.061-6.686-0.126
			c-3.115-0.081-6.646-0.173-10.305-0.173c-10.526,0-39.267,0.008-56.523,19.879c-9.943-11.634-24.364-16.789-38.573-17.383
			c-8.779-1.032-22.351-1.931-55.071-1.931c-1.006,0-2.011,0.04-3.015,0.12c-26.583,2.113-48.271,9.462-64.463,21.84
			C11.21,145.023,0,168.398,0,195.282c0,25.857,8.974,48.006,26.018,64.396C5.905,270.936,3.679,289.253,3.574,295.882
			l-0.326,24.075c-0.023,1.655,0.063,3.309,0.256,4.951c2.226,18.956,14.809,34.334,33.656,41.137
			c8.519,3.075,18.296,4.507,30.771,4.507c0.001,0,0.003,0,0.004,0c5.474,0,10.771-0.263,15.445-0.494
			c3.402-0.169,6.614-0.328,8.844-0.328c7.459,0,15.724-0.184,24.312-0.938c0.008,0.186,0.004,0.371,0.015,0.557l1.298,21.669
			c0.021,0.34,0.046,0.678,0.075,1.017c2.837,32.673,24.893,42.572,38.558,45.561L134.819,473.1
			c-5.998,7.357-14.972,19.605-16.546,36.506c-0.143,1.537-0.192,3.079-0.148,4.621l0.632,21.923v0.523
			c0,36.489,25.364,46.295,33.138,48.431c2.867,0.788,5.818,1.237,8.789,1.338c35.831,1.211,63.9,1.826,83.426,1.826
			c8.567,0,13.645-0.119,16.679-0.19c0.798-0.019,1.414-0.036,1.911-0.041c0.505,0.02,1.01,0.03,1.514,0.03
			c1.731,0,3.462-0.119,5.178-0.354c7.771-1.068,14.359-3.377,19.833-6.552c11.041,4.86,23.24,7.56,36.056,7.56h18.383
			c20.121,0,36.562-7.589,49.029-16.349c6.228,7.049,13.489,10.673,17.877,12.359c3.133,1.205,6.413,1.989,9.751,2.333l12.984,1.337
			c1.294,0.133,2.593,0.2,3.893,0.2h1.949c8.365,0,18.546-0.41,30.764-3.412c9.189-2.103,18.351-7.043,25.272-14.24
			c5.695,6.209,17.118,16.258,35.576,17.547c1.916,0.153,4.086,0.224,6.76,0.224c0.001,0,0.003,0,0.005,0
			c2.93,0,5.835-0.086,7.075-0.123l0.061-0.001c2.024-0.027,4.26-0.177,7.787-0.42c1.819-0.126,5.204-0.36,6.146-0.378
			c1.486,0,2.97-0.087,4.445-0.261c7.469-0.879,13.716-2.714,18.975-5.124c7.234,3.155,15.511,4.852,24.609,4.852h77.578
			c39.725,0,57.819-25.393,57.819-48.987v-3.746c0-0.181,0.022-0.433,0.131-1.491c0.206-1.996,0.517-5.012,0.517-8.942
			c0-6.696-0.001-19.625-7.647-31.731c5.084-7.83,7.647-17.699,7.647-29.527v-19.263c0-1.391-0.076-2.782-0.229-4.164
			c-0.877-7.954-3.249-14.294-6.23-19.31c1.856-3.022,3.382-6.302,4.541-9.812c1.012-3.063,1.629-6.243,1.838-9.463l0.086-1.333
			l39.423-13.563c1.809-0.623,3.569-1.381,5.265-2.268c11.167-5.846,21.487-13.283,30.712-22.13
			c0.958-0.803,1.876-1.654,2.755-2.552C860.248,318.667,871.526,257.371,848.945,206.562z"/>
	</g>
	<g>
		<g>
			<g>
				<path class="st2" d="M170.775,274.499c0-32.103-21.098-47.081-66.864-67.412c-12.01-5.349-13.635-10.433-13.635-14.446
					c0-12.036,5.195-13.909,24.671-13.909c11.036,0,24.668,0.534,40.249,0.534c12.658-1.873,12.334-6.954,12.334-17.922
					c0-12.306-2.273-19.797-16.231-19.797c-6.167-0.802-17.203-1.873-52.257-1.873c-37.005,2.944-61.023,18.192-61.023,49.758
					c0,65.27,82.445,47.615,82.445,82.925c0,13.912-35.38,13.644-51.609,13.644c-6.817,0-11.36-0.534-11.36-0.534h-9.414
					c-2.272,0.802-6.491,2.674-6.491,5.082l-0.326,24.075c1.949,16.586,33.758,11.237,50.961,11.237
					C127.606,325.861,170.775,321.311,170.775,274.499z"/>
			</g>
			<g>
				<g>
					<path class="st2" d="M169.796,321.311c0,2.14-0.324,3.746,2.272,4.55c10.712,0,21.422,0.801,32.134,0.801
						c9.09,0,19.152-0.801,19.152-5.619l12.01-48.15c0.324-1.338,3.568-1.873,4.869-1.873h33.756
						c0.65,0.267,1.625,4.547,1.949,4.547l7.465,41.732c1.622,8.56,4.545,9.629,15.255,9.629c7.792,0,15.257-0.534,23.046-0.534
						c12.01,0.534,12.334,0.534,13.632,0.534c1.624,0,3.247-0.802,3.247-2.407c0-0.534-0.648-3.211-0.974-3.746l-35.054-155.956
						c-0.326-1.603-2.272-10.433-3.571-12.84l-1.298-2.14c-5.195-9.095-13.959-10.433-31.486-10.433
						c-15.581,0-41.224-2.942-46.74,9.631l-49.663,170.669V321.311z M253.215,195.316c0-0.534,1.625-5.616,1.949-7.222l1.622-2.942
						l0.974,1.336c2.92,14.713,6.167,36.65,8.763,48.954l-21.422,0.804L253.215,195.316z"/>
				</g>
			</g>
			<g>
				<path class="st2" d="M369.082,327.731c22.072,0,29.213-1.336,29.213-18.723c0-1.873-0.324-3.746-0.324-5.886l0.324-50.827
					c17.853,0,57.776,1.606,58.427-7.756c0-0.804,0.324-2.409,0.324-4.28c0-5.351-0.648-13.644-0.648-16.319v-0.802
					c0-10.703-14.607-10.433-24.02-10.433c-5.517,0-29.537-0.27-35.056-0.27c0-1.87-0.972-13.107-0.972-14.711
					c0-3.211,0.648-17.657,0.648-17.924l2.272-0.267c12.658,0,25.643,1.071,38.951,1.071c18.501,0,22.72-9.097,22.72-19.26
					c0-5.619-2.27-11.504-2.27-16.319c-4.545-4.815-16.231-5.351-23.046-5.619h-0.974c-14.607,0-29.213-0.801-44.794-0.801
					c-23.37,0-39.599,1.069-41.547,5.618l0.65,170.934C350.257,325.861,360.319,327.731,369.082,327.731z"/>
			</g>
			<g>
				<path class="st2" d="M587.527,311.949c0-4.28,0.648-6.42,0.648-10.433c0-11.769-0.972-15.782-16.553-15.782
					c-8.44,0-38.951,0.534-48.039,0.534h-1.625c0-3.209-0.648-22.472-0.974-25.681v-8.026c4.545-0.267,9.09-0.534,13.635-0.534
					c2.92,0,31.81-0.267,34.73-0.267c16.879,0,18.825,0,18.825-11.502v-19.263c-0.648-5.883-2.596-6.418-10.062-6.418
					c-4.543,0-51.933,1.069-56.478,0.802c0-2.14-0.65-12.573-0.65-14.713c0-2.942,0.326-16.049,0.326-18.993
					c1.622,0,29.537-0.534,33.756-0.534h26.617c3.571-0.802,5.519-2.407,6.491-5.351l1.301-20.062
					c0.972-14.98-18.828-14.713-37.329-14.713l-37.329,0.267c-13.306,0-39.599-2.407-42.846,5.886v6.153
					c0,20.329-1.298,40.928-1.298,61.527c0,29.961,1.625,84.53,1.949,95.498c0.648,9.631,4.545,16.319,17.527,16.319h77.578
					c8.44,0,19.799-2.407,19.799-10.967V311.949z"/>
			</g>
			<g>
				<path class="st2" d="M562.167,357.747c-4.543-0.534-7.789-0.802-12.982-0.802c-12.01,0-27.915-0.537-27.591,16.317l1.948,80.52
					l-0.324,0.801l-0.65-0.534c-7.141-17.388-8.44-17.655-46.092-85.869c-3.895-6.955-15.255-12.573-24.668-12.306l-26.291,1.071
					c-2.599,0-10.064,2.675-10.064,5.616l1.739,82.743c-2.85,0.772-5.514,2.363-7.569,4.725l-18.226,19.357
					c-1.137,1.208-3.142,0.143-2.777-1.476l6.816-30.233c0-0.189,0.019-0.378,0.056-0.563l11.105-55.135
					c1.519-7.544-3.033-12.9-11.229-13.716h0c-10.092-1.216-15.235,6.172-16.754,13.716l-10.242,50.849
					c-0.269,1.334-1.44,2.293-2.801,2.293h-0.496c-1.664,0-2.977-1.417-2.848-3.077l6.782-71.68
					c0.583-7.553-5.067-14.148-12.62-14.732s-14.148,5.067-14.732,12.62l-6.979,74.232c-0.124,1.603-1.555,2.813-3.199,2.616
					c-1.409-0.169-2.438-1.43-2.51-2.847l-1.574-59.074c-0.384-7.544-6.878-13.716-14.431-13.716h0
					c-7.553,0-13.42,6.172-13.036,13.716l1.534,60.426c0.021,0.835-0.212,1.656-0.67,2.355c-1.314,2.008-4.062,2.469-5.959,0.999
					l-0.41-0.318c-0.801-0.621-1.344-1.515-1.526-2.512l-7.324-40.131c-1.385-5.973-6.421-10.357-12.248-10.919l-0.669-10.886
					c0-0.267-0.65-3.479-0.65-4.28c-1.622-9.362-5.193-9.631-14.604-10.166c-6.493-0.534-35.707-0.802-42.198-0.802
					c-4.545-0.267-38.301,0-42.846,0c-4.869,0-15.905,0.267-17.853,4.28l1.298,21.668c0.65,7.489,1.949,10.967,10.712,12.036
					l18.828,1.338h5.193c4.219,0,22.072-0.534,25.967-0.534h0.65c0.972,0,4.543,0.267,5.517,0.534l-56.802,93.093
					c-4.221,5.082-9.09,10.967-9.738,17.922l0.648,22.471v1.069c0,4.013,0.324,10.433,5.193,11.771
					c86.992,2.942,98.028,1.336,102.247,1.603c3.895-0.534,8.763-1.873,8.44-6.42l-1.298-24.075
					c-0.65-9.095-11.036-9.899-18.501-9.899c-9.738,0-17.203,0.537-26.941,0.537h-11.686l48.81-83.308l5.16,25.592
					c3.531,15.233,5.314,30.819,5.314,46.456l0,0c0,28.592,23.178,51.77,51.77,51.77h18.383c19.144,0,33.482-13.208,44.807-25.85
					l29.555-33.943l0.996,47.37c0,4.547,0.324,9.094,5.193,10.967l12.984,1.336h1.949c8.113,0,14.607-0.534,22.072-2.407
					c2.596-0.534,7.789-3.476,7.789-5.883v-6.687c0-73.031-4.869-79.986-4.545-80.787c52.91,79.716,55.506,94.963,69.138,95.765
					c2.92,0.27,10.062,0,10.386,0c2.273,0,11.038-0.802,14.607-0.802c13.635-1.605,13.959-6.687,14.283-24.609
					c2.272-131.346,0-142.314,0-151.408C571.905,362.561,569.633,358.014,562.167,357.747z"/>
			</g>
			<g>
				<path class="st2" d="M668.623,357.747l-37.329,0.267c-13.306,0-39.599-2.407-42.846,5.886v6.153
					c0,20.329-1.298,40.928-1.298,61.527c0,29.961,1.625,84.53,1.948,95.498c0.648,9.631,4.545,16.319,17.527,16.319h77.578
					c8.439,0,19.799-2.407,19.799-10.967v-3.746c0-4.28,0.648-6.42,0.648-10.433c0-11.769-0.972-15.782-16.553-15.782
					c-8.44,0-38.951,0.534-48.039,0.534h-1.625c0-3.209-0.648-22.471-0.974-25.68v-8.026c4.545-0.267,9.09-0.534,13.635-0.534
					c2.92,0,31.81-0.267,34.73-0.267c16.879,0,18.825,0,18.825-11.502V437.73c-0.648-5.883-2.596-6.418-10.062-6.418
					c-4.543,0-51.933,1.069-56.478,0.802c0-2.14-0.65-12.573-0.65-14.713c0-2.942,0.326-16.049,0.326-18.993
					c1.622,0,29.537-0.534,33.756-0.534h26.617c3.571-0.802,5.519-2.407,6.491-5.351l1.301-20.062
					C706.924,357.48,687.124,357.747,668.623,357.747z"/>
			</g>
		</g>
		<g>
			<g>
				<path class="st1" d="M67.934,370.552c-12.475,0-22.253-1.432-30.772-4.507c-18.848-6.803-31.431-22.181-33.658-41.136
					c-0.193-1.644-0.279-3.297-0.256-4.951l0.326-24.076c0.104-6.627,2.33-24.944,22.444-36.203C8.973,243.288,0,221.14,0,195.281
					c0-26.884,11.21-50.258,31.565-65.817c16.192-12.377,37.88-19.725,64.462-21.84c1.003-0.08,2.009-0.12,3.015-0.12
					c32.664,0,46.246,0.895,55.022,1.925c24.215,0.931,36.69,14.005,42.053,21.913c8.361,12.331,9.433,25.637,9.433,35.851l0,0.772
					c0.006,8.008,0.014,18.975-6.389,30.398c-4.166,7.432-9.947,13.255-17.285,17.433c17.862,17.373,26.917,39.081,26.917,64.551
					c0,35.896-17.103,63.52-48.157,77.784c-22.377,10.278-48.315,11.597-68.413,11.597c-2.23,0-5.444,0.159-8.845,0.328
					C78.706,370.289,73.408,370.552,67.934,370.552z"/>
				<path class="st1" d="M67.934,370.552c-12.475,0-22.253-1.432-30.772-4.507c-18.848-6.803-31.431-22.181-33.658-41.136
					c-0.193-1.644-0.279-3.297-0.256-4.951l0.326-24.076c0.104-6.627,2.33-24.944,22.444-36.203C8.973,243.288,0,221.14,0,195.281
					c0-26.884,11.21-50.258,31.565-65.817c16.192-12.377,37.88-19.725,64.462-21.84c1.003-0.08,2.009-0.12,3.015-0.12
					c32.664,0,46.246,0.895,55.022,1.925c24.215,0.931,36.69,14.005,42.053,21.913c8.361,12.331,9.433,25.637,9.433,35.851l0,0.772
					c0.006,8.008,0.014,18.975-6.389,30.398c-4.166,7.432-9.947,13.255-17.285,17.433c17.862,17.373,26.917,39.081,26.917,64.551
					c0,35.896-17.103,63.52-48.157,77.784c-22.377,10.278-48.315,11.597-68.413,11.597c-2.23,0-5.444,0.159-8.845,0.328
					C78.706,370.289,73.408,370.552,67.934,370.552z"/>
			</g>
			<g>
				<g>
					<path class="st1" d="M335.336,370.798c-2.168,0-2.851-0.018-14.425-0.532c-2.989,0.018-6.11,0.127-9.399,0.242
						c-4.077,0.143-8.293,0.29-12.855,0.29c-6.523,0-18.666,0-30.318-6.857c-5.849-3.441-10.636-7.939-14.337-13.454
						c-5.635,8.166-14.825,15.116-28.656,18.155c-5.864,1.289-12.583,1.889-21.144,1.889c-6.066,0-11.872-0.217-17.487-0.427
						c-5.143-0.192-10.001-0.374-14.647-0.374c-3.816,0-7.611-0.574-11.256-1.704c-13.628-4.225-29.411-17.452-29.038-40.829
						l0.002-1.64c0-3.595,0.51-7.171,1.514-10.623l49.664-170.669c0.461-1.586,1.026-3.141,1.69-4.653
						c3.71-8.456,13.396-23.555,36.574-29.665c7.894-2.081,16.527-3.009,27.993-3.009c3.658,0,7.188,0.092,10.303,0.173
						c2.478,0.064,4.819,0.125,6.686,0.125c16.533,0,47.224,0.002,64.195,29.068l1.098,1.81c0.332,0.547,0.65,1.104,0.954,1.667
						c1.033,1.915,4.157,7.708,7.283,22.912l34.507,153.522c1.613,5.106,2.365,10.258,2.365,14.155
						C376.602,352.662,358.091,370.798,335.336,370.798z"/>
				</g>
				<g>
					<path class="st1" d="M335.336,370.798c-2.168,0-2.851-0.018-14.425-0.532c-2.989,0.018-6.11,0.127-9.399,0.242
						c-4.077,0.143-8.293,0.29-12.855,0.29c-6.523,0-18.666,0-30.318-6.857c-5.849-3.441-10.636-7.939-14.337-13.454
						c-5.635,8.166-14.825,15.116-28.656,18.155c-5.864,1.289-12.583,1.889-21.144,1.889c-6.066,0-11.872-0.217-17.487-0.427
						c-5.143-0.192-10.001-0.374-14.647-0.374c-3.816,0-7.611-0.574-11.256-1.704c-13.628-4.225-29.411-17.452-29.038-40.829
						l0.002-1.64c0-3.595,0.51-7.171,1.514-10.623l49.664-170.669c0.461-1.586,1.026-3.141,1.69-4.653
						c3.71-8.456,13.396-23.555,36.574-29.665c7.894-2.081,16.527-3.009,27.993-3.009c3.658,0,7.188,0.092,10.303,0.173
						c2.478,0.064,4.819,0.125,6.686,0.125c16.533,0,47.224,0.002,64.195,29.068l1.098,1.81c0.332,0.547,0.65,1.104,0.954,1.667
						c1.033,1.915,4.157,7.708,7.283,22.912l34.507,153.522c1.613,5.106,2.365,10.258,2.365,14.155
						C376.602,352.662,358.091,370.798,335.336,370.798z"/>
				</g>
			</g>
			<g>
				<path class="st1" d="M369.083,371.6c-11.264,0-20.838-1.962-29.271-5.997c-16.018-7.664-26.44-22.251-28.595-40.02
					c-0.178-1.471-0.271-2.95-0.276-4.432l-0.651-170.934c-0.02-5.194,1.025-10.337,3.07-15.112
					c10.049-23.464,35.09-26.363,43.319-27.315c8.098-0.937,18.331-1.355,33.178-1.355c8.429,0,16.42,0.216,24.147,0.424
					c7.187,0.194,13.974,0.377,20.647,0.377h0.974c0.497,0,0.995,0.01,1.492,0.029c11.013,0.433,33.929,1.333,49.201,17.51
					c6.256,6.627,9.91,15.265,10.332,24.33c0.093,0.486,0.229,1.151,0.338,1.681c0.785,3.838,1.973,9.637,1.973,16.407
					c0,14.391-4.308,26.799-11.995,36.351c4.792,7.352,7.453,16.063,7.453,25.443v0.596c0.021,0.683,0.116,2.461,0.187,3.777
					c0.205,3.829,0.461,8.594,0.461,12.748c0,3.016-0.259,5.537-0.416,6.937c-1.118,15.965-11.143,29.564-26.818,36.379
					c-5.546,2.411-12.03,4.103-19.824,5.174c-3.604,0.495-7.516,0.873-11.931,1.142l-0.081,12.8
					c0.011,0.137,0.022,0.271,0.034,0.405c0.113,1.362,0.286,3.421,0.286,5.911c0,28.791-14.129,42.631-25.981,49.171
					C397.643,371.03,384.143,371.6,369.083,371.6z"/>
				<path class="st1" d="M369.083,371.6c-11.264,0-20.838-1.962-29.271-5.997c-16.018-7.664-26.44-22.251-28.595-40.02
					c-0.178-1.471-0.271-2.95-0.276-4.432l-0.651-170.934c-0.02-5.194,1.025-10.337,3.07-15.112
					c10.049-23.464,35.09-26.363,43.319-27.315c8.098-0.937,18.331-1.355,33.178-1.355c8.429,0,16.42,0.216,24.147,0.424
					c7.187,0.194,13.974,0.377,20.647,0.377h0.974c0.497,0,0.995,0.01,1.492,0.029c11.013,0.433,33.929,1.333,49.201,17.51
					c6.256,6.627,9.91,15.265,10.332,24.33c0.093,0.486,0.229,1.151,0.338,1.681c0.785,3.838,1.973,9.637,1.973,16.407
					c0,14.391-4.308,26.799-11.995,36.351c4.792,7.352,7.453,16.063,7.453,25.443v0.596c0.021,0.683,0.116,2.461,0.187,3.777
					c0.205,3.829,0.461,8.594,0.461,12.748c0,3.016-0.259,5.537-0.416,6.937c-1.118,15.965-11.143,29.564-26.818,36.379
					c-5.546,2.411-12.03,4.103-19.824,5.174c-3.604,0.495-7.516,0.873-11.931,1.142l-0.081,12.8
					c0.011,0.137,0.022,0.271,0.034,0.405c0.113,1.362,0.286,3.421,0.286,5.911c0,28.791-14.129,42.631-25.981,49.171
					C397.643,371.03,384.143,371.6,369.083,371.6z"/>
			</g>
			<g>
				<path class="st1" d="M490.15,370.53c-31.573,0-53.343-20.326-55.461-51.784c-0.032-0.478-0.056-0.955-0.069-1.434l-0.019-0.61
					c-1.273-43.183-1.946-76.381-1.946-96.007c0-10.934,0.341-21.728,0.671-32.167c0.322-10.197,0.627-19.83,0.627-29.36v-6.153
					c0-4.743,0.888-9.445,2.617-13.862c3.355-8.57,12.603-23.668,36.83-28.498c6.404-1.276,13.803-1.871,23.285-1.871
					c4.052,0,7.96,0.103,11.407,0.194c2.497,0.066,4.859,0.128,6.606,0.131c0,0,37.357-0.267,37.448-0.267l1.919,0
					c18.296,0,43.353,0,60.436,18.227c9.235,9.854,13.821,22.982,12.914,36.967l-1.301,20.061c-0.208,3.217-0.825,6.395-1.836,9.457
					c-1.159,3.511-2.686,6.795-4.542,9.818c2.981,5.016,5.354,11.358,6.229,19.314c0.152,1.381,0.229,2.77,0.229,4.159v19.263
					c0,4.816-0.23,10.573-1.937,16.76c-1.27,4.602-3.215,8.875-5.748,12.708c7.686,12.123,7.685,25.082,7.685,31.79
					c0,3.928-0.311,6.942-0.516,8.937c-0.109,1.061-0.132,1.312-0.132,1.496v3.746c0,19.034-11.403,35.752-29.76,43.631
					c-10.312,4.427-20.951,5.355-28.06,5.355H490.15z"/>
				<path class="st1" d="M490.15,370.53c-31.573,0-53.343-20.326-55.461-51.784c-0.032-0.478-0.056-0.955-0.069-1.434l-0.019-0.61
					c-1.273-43.183-1.946-76.381-1.946-96.007c0-10.934,0.341-21.728,0.671-32.167c0.322-10.197,0.627-19.83,0.627-29.36v-6.153
					c0-4.743,0.888-9.445,2.617-13.862c3.355-8.57,12.603-23.668,36.83-28.498c6.404-1.276,13.803-1.871,23.285-1.871
					c4.052,0,7.96,0.103,11.407,0.194c2.497,0.066,4.859,0.128,6.606,0.131c0,0,37.357-0.267,37.448-0.267l1.919,0
					c18.296,0,43.353,0,60.436,18.227c9.235,9.854,13.821,22.982,12.914,36.967l-1.301,20.061c-0.208,3.217-0.825,6.395-1.836,9.457
					c-1.159,3.511-2.686,6.795-4.542,9.818c2.981,5.016,5.354,11.358,6.229,19.314c0.152,1.381,0.229,2.77,0.229,4.159v19.263
					c0,4.816-0.23,10.573-1.937,16.76c-1.27,4.602-3.215,8.875-5.748,12.708c7.686,12.123,7.685,25.082,7.685,31.79
					c0,3.928-0.311,6.942-0.516,8.937c-0.109,1.061-0.132,1.312-0.132,1.496v3.746c0,19.034-11.403,35.752-29.76,43.631
					c-10.312,4.427-20.951,5.355-28.06,5.355H490.15z"/>
			</g>
			<g>
				<path class="st1" d="M325.282,588.721c-12.816,0-25.013-2.699-36.054-7.559c-5.478,3.176-12.068,5.484-19.846,6.552
					c-1.713,0.234-3.439,0.353-5.167,0.353c-0.503,0-1.007-0.01-1.51-0.03c-0.496,0.006-1.111,0.023-1.908,0.042
					c-3.035,0.071-8.115,0.189-16.689,0.189c-19.524,0-47.592-0.614-83.425-1.826c-2.972-0.101-5.921-0.55-8.788-1.337
					c-7.774-2.136-33.14-11.941-33.14-48.433v-0.521l-0.632-21.923c-0.044-1.542,0.005-3.086,0.148-4.622
					c1.574-16.897,10.548-29.146,16.545-36.504l21.648-35.479c-11.976-2.509-21.518-8.272-28.414-17.182
					c-8.627-11.145-9.678-23.243-10.127-28.409c-0.029-0.339-0.054-0.678-0.075-1.017l-1.298-21.668
					c-0.39-6.511,0.901-13.012,3.75-18.879c12.475-25.694,42.266-25.694,52.055-25.694c0.992,0,3.417-0.014,6.631-0.031
					c6.562-0.035,16.288-0.087,24.097-0.087c8.03,0,11.281,0.055,13.076,0.122c5.623,0.027,34.362,0.204,43.75,0.88
					c7.098,0.404,16.708,1.034,26.643,6.738c0.619,0.355,1.251,0.738,1.892,1.149c7.453-4.053,15.897-6.254,24.518-6.254
					c2.295,0,4.558,0.147,6.778,0.434c9.331-8.869,21.911-14.305,35.578-14.305c1.327,0,2.671,0.052,3.997,0.153
					c13.778,1.063,26.318,7.43,35.309,17.925c0.69,0.807,1.354,1.629,1.99,2.469c8.61-5.802,18.807-8.91,27.677-9.175l25.97-1.058
					c0.155-0.006,0.312-0.012,0.467-0.016c0.574-0.017,1.15-0.024,1.73-0.024c16.758,0,33.678,6.811,45.73,17.64
					c16.285-16.563,38.245-16.562,48.804-16.562l2.192,0.002c6.549,0,11.064,0.339,16.277,0.931
					c23.034,1.639,40.522,17.641,44.821,41.244c0.409,2.248,0.615,4.528,0.615,6.812c0,0.823,0.062,2.243,0.148,4.209
					c0.517,11.756,1.725,39.285-0.154,147.857c-0.215,11.895-0.418,23.102-6.048,34.548c-5.298,10.77-16.851,24.224-41.802,27.162
					c-1.442,0.17-2.893,0.257-4.345,0.261c-1.123,0.024-4.451,0.254-6.249,0.378c-3.525,0.243-5.762,0.392-7.784,0.419l-0.063,0.002
					c-1.24,0.037-4.146,0.123-7.079,0.123c-2.673,0-4.842-0.072-6.756-0.225c-18.462-1.287-29.886-11.337-35.581-17.548
					c-6.922,7.198-16.086,12.139-25.275,14.242c-12.218,3.001-22.396,3.41-30.761,3.41H437.2c-1.3,0-2.599-0.066-3.892-0.199
					l-12.984-1.336c-3.342-0.345-6.625-1.13-9.761-2.336c-4.386-1.688-11.644-5.312-17.869-12.357
					c-12.467,8.761-28.907,16.349-49.029,16.349H325.282z"/>
				<path class="st1" d="M325.282,588.721c-12.816,0-25.013-2.699-36.054-7.559c-5.478,3.176-12.068,5.484-19.846,6.552
					c-1.713,0.234-3.439,0.353-5.167,0.353c-0.503,0-1.007-0.01-1.51-0.03c-0.496,0.006-1.111,0.023-1.908,0.042
					c-3.035,0.071-8.115,0.189-16.689,0.189c-19.524,0-47.592-0.614-83.425-1.826c-2.972-0.101-5.921-0.55-8.788-1.337
					c-7.774-2.136-33.14-11.941-33.14-48.433v-0.521l-0.632-21.923c-0.044-1.542,0.005-3.086,0.148-4.622
					c1.574-16.897,10.548-29.146,16.545-36.504l21.648-35.479c-11.976-2.509-21.518-8.272-28.414-17.182
					c-8.627-11.145-9.678-23.243-10.127-28.409c-0.029-0.339-0.054-0.678-0.075-1.017l-1.298-21.668
					c-0.39-6.511,0.901-13.012,3.75-18.879c12.475-25.694,42.266-25.694,52.055-25.694c0.992,0,3.417-0.014,6.631-0.031
					c6.562-0.035,16.288-0.087,24.097-0.087c8.03,0,11.281,0.055,13.076,0.122c5.623,0.027,34.362,0.204,43.75,0.88
					c7.098,0.404,16.708,1.034,26.643,6.738c0.619,0.355,1.251,0.738,1.892,1.149c7.453-4.053,15.897-6.254,24.518-6.254
					c2.295,0,4.558,0.147,6.778,0.434c9.331-8.869,21.911-14.305,35.578-14.305c1.327,0,2.671,0.052,3.997,0.153
					c13.778,1.063,26.318,7.43,35.309,17.925c0.69,0.807,1.354,1.629,1.99,2.469c8.61-5.802,18.807-8.91,27.677-9.175l25.97-1.058
					c0.155-0.006,0.312-0.012,0.467-0.016c0.574-0.017,1.15-0.024,1.73-0.024c16.758,0,33.678,6.811,45.73,17.64
					c16.285-16.563,38.245-16.562,48.804-16.562l2.192,0.002c6.549,0,11.064,0.339,16.277,0.931
					c23.034,1.639,40.522,17.641,44.821,41.244c0.409,2.248,0.615,4.528,0.615,6.812c0,0.823,0.062,2.243,0.148,4.209
					c0.517,11.756,1.725,39.285-0.154,147.857c-0.215,11.895-0.418,23.102-6.048,34.548c-5.298,10.77-16.851,24.224-41.802,27.162
					c-1.442,0.17-2.893,0.257-4.345,0.261c-1.123,0.024-4.451,0.254-6.249,0.378c-3.525,0.243-5.762,0.392-7.784,0.419l-0.063,0.002
					c-1.24,0.037-4.146,0.123-7.079,0.123c-2.673,0-4.842-0.072-6.756-0.225c-18.462-1.287-29.886-11.337-35.581-17.548
					c-6.922,7.198-16.086,12.139-25.275,14.242c-12.218,3.001-22.396,3.41-30.761,3.41H437.2c-1.3,0-2.599-0.066-3.892-0.199
					l-12.984-1.336c-3.342-0.345-6.625-1.13-9.761-2.336c-4.386-1.688-11.644-5.312-17.869-12.357
					c-12.467,8.761-28.907,16.349-49.029,16.349H325.282z"/>
			</g>
			<g>
				<path class="st1" d="M606.625,587.265c-31.576,0-53.345-20.328-55.46-51.787c-0.032-0.476-0.056-0.951-0.069-1.428l-0.012-0.399
					c-1.277-43.209-1.953-76.481-1.953-96.222c0-10.934,0.341-21.728,0.671-32.166c0.322-10.198,0.627-19.83,0.627-29.361v-6.152
					c0-4.743,0.888-9.445,2.617-13.861c3.355-8.57,12.603-23.669,36.83-28.498c6.403-1.276,13.803-1.871,23.285-1.871
					c4.052,0,7.959,0.104,11.407,0.194c2.494,0.065,4.853,0.128,6.6,0.131c0,0,37.364-0.267,37.455-0.267h1.918
					c18.297,0,43.354,0,60.437,18.227c9.235,9.854,13.821,22.981,12.914,36.967l-1.301,20.061c-0.208,3.221-0.826,6.401-1.839,9.466
					c-1.158,3.508-2.685,6.789-4.54,9.81c2.98,5.014,5.354,11.355,6.23,19.308c0.152,1.383,0.229,2.773,0.229,4.165v19.263
					c0,4.815-0.23,10.573-1.937,16.76c-1.27,4.602-3.215,8.875-5.748,12.708c7.685,12.122,7.685,25.081,7.685,31.789
					c0,3.931-0.312,6.947-0.518,8.943c-0.108,1.058-0.131,1.309-0.131,1.49v3.746c0,19.033-11.402,35.752-29.758,43.631
					c-10.313,4.427-20.952,5.355-28.061,5.355H606.625z"/>
				<path class="st1" d="M606.625,587.265c-31.576,0-53.345-20.328-55.46-51.787c-0.032-0.476-0.056-0.951-0.069-1.428l-0.012-0.399
					c-1.277-43.209-1.953-76.481-1.953-96.222c0-10.934,0.341-21.728,0.671-32.166c0.322-10.198,0.627-19.83,0.627-29.361v-6.152
					c0-4.743,0.888-9.445,2.617-13.861c3.355-8.57,12.603-23.669,36.83-28.498c6.403-1.276,13.803-1.871,23.285-1.871
					c4.052,0,7.959,0.104,11.407,0.194c2.494,0.065,4.853,0.128,6.6,0.131c0,0,37.364-0.267,37.455-0.267h1.918
					c18.297,0,43.354,0,60.437,18.227c9.235,9.854,13.821,22.981,12.914,36.967l-1.301,20.061c-0.208,3.221-0.826,6.401-1.839,9.466
					c-1.158,3.508-2.685,6.789-4.54,9.81c2.98,5.014,5.354,11.355,6.23,19.308c0.152,1.383,0.229,2.773,0.229,4.165v19.263
					c0,4.815-0.23,10.573-1.937,16.76c-1.27,4.602-3.215,8.875-5.748,12.708c7.685,12.122,7.685,25.081,7.685,31.789
					c0,3.931-0.312,6.947-0.518,8.943c-0.108,1.058-0.131,1.309-0.131,1.49v3.746c0,19.033-11.402,35.752-29.758,43.631
					c-10.313,4.427-20.952,5.355-28.061,5.355H606.625z"/>
			</g>
		</g>
	</g>
	<path class="st1" d="M578.493,129.018H281.055V78.714c0-16.045,13.007-29.052,29.052-29.052h239.333
		c16.045,0,29.052,13.007,29.052,29.052V129.018z"/>
	<g>
		<path class="st1" d="M638.658,433.099c-11.52,0-22.69-5.245-30.034-14.7l-84.996-109.438c-1.097-1.412-2.092-2.899-2.979-4.452
			c-6.858-11.998-11.775-25.222-14.613-39.308c-11.093-55.121,12.87-112.583,59.627-142.997
			c18.116-11.788,38.501-18.756,59.467-20.398c-0.571-5.876-0.004-11.865,1.732-17.694l3.755-12.609
			c7.626-25.608,24.768-46.714,48.267-59.431C693.48,4.174,709.933,0,726.465,0c10.254,0,20.442,1.582,30.284,4.702
			c25.396,8.051,46.115,25.694,58.343,49.677c11.966,23.471,14.412,50.314,6.888,75.585l-8.735,29.336
			c15.206,12.479,27.455,28.574,35.68,47.214c22.596,50.904,11.309,112.166-28.092,152.47c-0.879,0.899-1.8,1.751-2.758,2.555
			c-9.229,8.849-19.549,16.286-30.715,22.129c-1.693,0.886-3.451,1.644-5.259,2.265L651.02,431.028
			C646.962,432.425,642.787,433.099,638.658,433.099z"/>
	</g>
	<g>
		<path class="st3" d="M667.054,76.505l-3.755,12.612c-1.3,4.367,1.186,8.961,5.553,10.261l14.591,4.345
			c4.367,1.3,8.961-1.186,10.261-5.553l2.705-9.085c2.39-8.027,7.802-14.322,14.616-18.024c6.835-3.684,15.076-4.769,23.095-2.372
			c15.963,4.77,24.866,22.594,20.111,38.562l-30.925,103.856l30.405,9.054l31.83-106.896c9.72-32.644-7.815-67.877-40.282-78.171
			c-16.755-5.312-34.021-3.151-48.281,4.566C683.021,47.213,671.938,60.103,667.054,76.505z"/>
		<path class="st4" d="M814.155,216.046c-11.05-25.07-31.417-42.11-54.93-49.112c-17.455-5.197-36.551-4.882-54.909,2.172
			c-11.708-15.835-27.619-26.746-45.073-31.943c-23.513-7.002-49.885-3.878-72.849,11.063
			c-34.545,22.47-50.944,64.577-43.087,103.617c1.948,9.669,5.268,19.061,10.35,27.949l84.996,109.437l131.081-45.095
			c8.773-4.591,16.65-10.477,23.523-17.349c0.047-0.158,0.39-0.226,0.39-0.226C821.435,298.132,830.933,253.799,814.155,216.046z"/>
		<path class="st5" d="M682.742,277.177l-0.233-5.626c5.833-1.35,10.816-5.636,12.647-11.785c2.712-9.108-2.473-18.69-11.581-21.402
			c-9.108-2.712-18.69,2.473-21.402,11.581c-1.831,6.149-0.005,12.462,4.14,16.784l-3.273,4.582l-18.392,25.748l19.703,5.867
			l19.703,5.867L682.742,277.177z"/>
	</g>
	<g>
		<g>
			<g>
				<g>
					<path class="st6" d="M57.495,285.467c0,0,4.543,0.534,11.36,0.534c16.229,0,51.609,0.267,51.609-13.644
						c0-35.309-82.445-17.655-82.445-82.925c0-31.566,24.018-46.814,61.023-49.758c35.054,0,46.09,1.071,52.257,1.873
						c13.959,0,16.231,7.491,16.231,19.797c0,10.967,0.324,16.049-12.334,17.922c-15.581,0-29.213-0.534-40.249-0.534
						c-19.476,0-24.671,1.873-24.671,13.909c0,4.013,1.625,9.097,13.635,14.446c45.766,20.332,66.864,35.309,66.864,67.412
						c0,46.811-43.17,51.361-78.55,51.361c-17.203,0-49.013,5.349-50.961-11.237l0.326-24.075c0-2.407,4.219-4.28,6.491-5.082
						H57.495z"/>
				</g>
			</g>
			<g>
				<g>
					<path class="st6" d="M169.796,321.311v-1.603l49.663-170.669c5.517-12.573,31.159-9.631,46.74-9.631
						c17.527,0,26.291,1.338,31.486,10.433l1.298,2.14c1.298,2.407,3.244,11.237,3.571,12.84l35.054,155.956
						c0.326,0.534,0.974,3.211,0.974,3.746c0,1.606-1.622,2.407-3.247,2.407c-1.298,0-1.622,0-13.632-0.534
						c-7.789,0-15.255,0.534-23.046,0.534c-10.71,0-13.632-1.069-15.255-9.629l-7.465-41.732c-0.324,0-1.298-4.28-1.948-4.547
						h-33.756c-1.301,0-4.545,0.534-4.869,1.873l-12.01,48.15c0,4.817-10.062,5.618-19.152,5.618
						c-10.712,0-21.422-0.802-32.134-0.802C169.472,325.056,169.796,323.451,169.796,321.311z M245.102,236.246l21.422-0.804
						c-2.596-12.303-5.843-34.241-8.764-48.954l-0.974-1.336l-1.622,2.942c-0.324,1.606-1.949,6.687-1.949,7.222L245.102,236.246z"
						/>
				</g>
			</g>
			<g>
				<g>
					<path class="st6" d="M348.309,144.224c1.948-4.55,18.177-5.618,41.548-5.618c15.581,0,30.188,0.802,44.794,0.802h0.974
						c6.815,0.267,18.501,0.804,23.046,5.618c0,4.814,2.27,10.7,2.27,16.319c0,10.163-4.219,19.26-22.72,19.26
						c-13.308,0-26.293-1.071-38.951-1.071l-2.272,0.267c0,0.267-0.648,14.713-0.648,17.924c0,1.603,0.972,12.84,0.972,14.711
						c5.519,0,29.54,0.27,35.056,0.27c9.414,0,24.02-0.27,24.02,10.433v0.802c0,2.674,0.648,10.967,0.648,16.319
						c0,1.87-0.324,3.476-0.324,4.28c-0.65,9.362-40.573,7.756-58.427,7.756l-0.324,50.827c0,2.14,0.324,4.013,0.324,5.886
						c0,17.388-7.141,18.724-29.213,18.724c-8.764,0-18.825-1.87-20.123-12.573L348.309,144.224z"/>
				</g>
			</g>
			<g>
				<g>
					<path class="st6" d="M470.674,214.846c0-20.599,1.298-41.198,1.298-61.527v-6.153c3.247-8.293,29.54-5.886,42.846-5.886
						l37.329-0.267c18.501,0,38.301-0.267,37.329,14.713l-1.301,20.062c-0.972,2.944-2.92,4.55-6.491,5.351h-26.617
						c-4.219,0-32.134,0.534-33.756,0.534c0,2.944-0.326,16.051-0.326,18.993c0,2.14,0.65,12.573,0.65,14.713
						c4.545,0.267,51.936-0.802,56.478-0.802c7.465,0,9.414,0.534,10.062,6.418v19.263c0,11.502-1.946,11.502-18.825,11.502
						c-2.92,0-31.81,0.267-34.73,0.267c-4.545,0-9.09,0.267-13.635,0.534v8.026c0.326,3.209,0.974,22.472,0.974,25.68h1.625
						c9.088,0,39.599-0.534,48.039-0.534c15.581,0,16.553,4.013,16.553,15.782c0,4.013-0.648,6.153-0.648,10.433v3.746
						c0,8.56-11.36,10.967-19.799,10.967H490.15c-12.982,0-16.879-6.687-17.527-16.319
						C472.299,299.376,470.674,244.806,470.674,214.846z"/>
				</g>
			</g>
		</g>
		<g>
			<g>
				<g>
					<path class="st7" d="M67.846,336.919c-7.684,0-27.773-0.055-29.487-14.644l-0.022-0.189l0.329-24.266
						c0-3.979,4.591-6.441,8.442-7.8l0.472-0.167h10.085l0.17,0.02c0.044,0.005,4.48,0.515,11.02,0.515l1.876,0
						c7.088,0,20.282,0,30.726-1.758c7.336-1.234,16.082-3.792,16.082-8.962c0-12.3-11.383-17.115-29.957-23.953
						c-23.384-8.609-52.487-19.323-52.487-58.972c0-31.143,22.033-49.356,63.716-52.673l0.116-0.009h0.116
						c33.239,0,45.215,0.943,52.449,1.873c17.493,0.085,18.964,11.769,18.964,22.722v0.798c0.008,10.345,0.013,17.82-14.831,20.017
						l-0.213,0.032h-0.215c-8.49,0-16.524-0.161-23.613-0.303c-5.977-0.119-11.623-0.232-16.637-0.232
						c-19.873,0-21.746,1.94-21.746,10.984c0,1.938,0,6.475,11.9,11.774c46.478,20.647,68.599,36.401,68.599,70.084
						c0,22.006-9.324,37.446-27.711,45.893c-16.195,7.439-37.239,8.394-53.763,8.394c-3.1,0-6.736,0.18-10.585,0.371
						c-4.475,0.222-9.103,0.451-13.706,0.451C67.905,336.919,67.876,336.919,67.846,336.919z"/>
				</g>
				<g>
					<path class="st7" d="M67.846,336.919c-7.684,0-27.773-0.055-29.487-14.644l-0.022-0.189l0.329-24.266
						c0-3.979,4.591-6.441,8.442-7.8l0.472-0.167h10.085l0.17,0.02c0.044,0.005,4.48,0.515,11.02,0.515l1.876,0
						c7.088,0,20.282,0,30.726-1.758c7.336-1.234,16.082-3.792,16.082-8.962c0-12.3-11.383-17.115-29.957-23.953
						c-23.384-8.609-52.487-19.323-52.487-58.972c0-31.143,22.033-49.356,63.716-52.673l0.116-0.009h0.116
						c33.239,0,45.215,0.943,52.449,1.873c17.493,0.085,18.964,11.769,18.964,22.722v0.798c0.008,10.345,0.013,17.82-14.831,20.017
						l-0.213,0.032h-0.215c-8.49,0-16.524-0.161-23.613-0.303c-5.977-0.119-11.623-0.232-16.637-0.232
						c-19.873,0-21.746,1.94-21.746,10.984c0,1.938,0,6.475,11.9,11.774c46.478,20.647,68.599,36.401,68.599,70.084
						c0,22.006-9.324,37.446-27.711,45.893c-16.195,7.439-37.239,8.394-53.763,8.394c-3.1,0-6.736,0.18-10.585,0.371
						c-4.475,0.222-9.103,0.451-13.706,0.451C67.905,336.919,67.876,336.919,67.846,336.919z"/>
				</g>
			</g>
			<g>
				<g>
					<path class="st7" d="M335.336,337.165c-1.361,0-1.687,0-13.697-0.534c-3.822,0.001-7.651,0.136-11.355,0.265
						c-3.775,0.133-7.68,0.27-11.627,0.27c-11.022,0-16.067-1.136-18.128-12.009l-7.378-41.246
						c-0.279-0.569-0.489-1.211-0.697-1.846c-0.072-0.22-0.168-0.514-0.269-0.808h-31.952c-0.629,0-1.633,0.187-2.214,0.389
						l-11.752,47.114c-0.465,8.138-15.014,8.138-22.065,8.138c-5.411,0-10.883-0.205-16.176-0.402
						c-5.239-0.196-10.656-0.398-15.958-0.398h-0.443l-0.423-0.131c-4.423-1.371-4.368-4.87-4.338-6.749l0.006-0.595v-2.021
						l49.833-171.252l0.077-0.175c4.517-10.292,18.928-11.68,32.43-11.68c3.202,0,6.347,0.082,9.389,0.162
						c2.713,0.071,5.275,0.137,7.6,0.137c16.444,0,27.697,0.829,34.025,11.907l1.297,2.138l0.035,0.065
						c1.697,3.147,3.841,13.542,3.862,13.646l34.978,155.612c0.582,1.401,1.11,3.893,1.11,4.672
						C341.508,334.873,338.854,337.165,335.336,337.165z M256.14,202.914l-7.449,37.582l14.283-0.536
						c-1.182-6.048-2.458-13.585-3.797-21.488c-0.936-5.527-1.893-11.176-2.832-16.383c-0.09,0.324-0.164,0.6-0.205,0.775V202.914z"
						/>
				</g>
				<g>
					<path class="st7" d="M335.336,337.165c-1.361,0-1.687,0-13.697-0.534c-3.822,0.001-7.651,0.136-11.355,0.265
						c-3.775,0.133-7.68,0.27-11.627,0.27c-11.022,0-16.067-1.136-18.128-12.009l-7.378-41.246
						c-0.279-0.569-0.489-1.211-0.697-1.846c-0.072-0.22-0.168-0.514-0.269-0.808h-31.952c-0.629,0-1.633,0.187-2.214,0.389
						l-11.752,47.114c-0.465,8.138-15.014,8.138-22.065,8.138c-5.411,0-10.883-0.205-16.176-0.402
						c-5.239-0.196-10.656-0.398-15.958-0.398h-0.443l-0.423-0.131c-4.423-1.371-4.368-4.87-4.338-6.749l0.006-0.595v-2.021
						l49.833-171.252l0.077-0.175c4.517-10.292,18.928-11.68,32.43-11.68c3.202,0,6.347,0.082,9.389,0.162
						c2.713,0.071,5.275,0.137,7.6,0.137c16.444,0,27.697,0.829,34.025,11.907l1.297,2.138l0.035,0.065
						c1.697,3.147,3.841,13.542,3.862,13.646l34.978,155.612c0.582,1.401,1.11,3.893,1.11,4.672
						C341.508,334.873,338.854,337.165,335.336,337.165z M256.14,202.914l-7.449,37.582l14.283-0.536
						c-1.182-6.048-2.458-13.585-3.797-21.488c-0.936-5.527-1.893-11.176-2.832-16.383c-0.09,0.324-0.164,0.6-0.205,0.775V202.914z"
						/>
				</g>
			</g>
			<g>
				<g>
					<path class="st7" d="M369.083,337.967c-14.061,0-21.808-5.096-23.027-15.146l-0.021-0.17l-0.653-171.711l0.238-0.557
						c2.367-5.526,13.529-7.392,44.236-7.392c7.956,0,15.706,0.209,23.201,0.412c7.43,0.201,14.448,0.39,21.594,0.39l1.088,0.002
						c9.492,0.373,20.039,1.216,25.06,6.533l0.798,0.845v1.163c0,2.018,0.49,4.414,1.01,6.95c0.619,3.026,1.26,6.155,1.26,9.369
						c0,14.721-8.628,22.185-25.645,22.185c-6.798,0-13.552-0.279-20.083-0.548c-6.328-0.261-12.315-0.508-18.322-0.522
						c-0.178,4.226-0.541,12.934-0.541,15.266c0,0.662,0.249,3.989,0.449,6.663c0.154,2.058,0.283,3.787,0.374,5.135
						c3.621,0.022,9.272,0.074,14.782,0.124c7.253,0.066,14.754,0.134,17.499,0.134l1.388,0c8.932,0,25.558,0,25.558,13.358v0.801
						c0,1.029,0.109,3.078,0.236,5.45c0.184,3.411,0.411,7.656,0.411,10.869c0,1.296-0.133,2.462-0.23,3.313
						c-0.041,0.363-0.093,0.815-0.093,0.967v0.102l-0.007,0.101c-0.536,7.714-12.561,10.583-44.366,10.583
						c-3.493,0-6.862-0.031-9.944-0.059c-1.446-0.013-2.828-0.026-4.13-0.035l-0.305,47.91c0,0.965,0.078,1.894,0.16,2.878
						c0.081,0.964,0.164,1.962,0.164,2.989C401.22,337.003,390.2,337.967,369.083,337.967z"/>
				</g>
				<g>
					<path class="st7" d="M369.083,337.967c-14.061,0-21.808-5.096-23.027-15.146l-0.021-0.17l-0.653-171.711l0.238-0.557
						c2.367-5.526,13.529-7.392,44.236-7.392c7.956,0,15.706,0.209,23.201,0.412c7.43,0.201,14.448,0.39,21.594,0.39l1.088,0.002
						c9.492,0.373,20.039,1.216,25.06,6.533l0.798,0.845v1.163c0,2.018,0.49,4.414,1.01,6.95c0.619,3.026,1.26,6.155,1.26,9.369
						c0,14.721-8.628,22.185-25.645,22.185c-6.798,0-13.552-0.279-20.083-0.548c-6.328-0.261-12.315-0.508-18.322-0.522
						c-0.178,4.226-0.541,12.934-0.541,15.266c0,0.662,0.249,3.989,0.449,6.663c0.154,2.058,0.283,3.787,0.374,5.135
						c3.621,0.022,9.272,0.074,14.782,0.124c7.253,0.066,14.754,0.134,17.499,0.134l1.388,0c8.932,0,25.558,0,25.558,13.358v0.801
						c0,1.029,0.109,3.078,0.236,5.45c0.184,3.411,0.411,7.656,0.411,10.869c0,1.296-0.133,2.462-0.23,3.313
						c-0.041,0.363-0.093,0.815-0.093,0.967v0.102l-0.007,0.101c-0.536,7.714-12.561,10.583-44.366,10.583
						c-3.493,0-6.862-0.031-9.944-0.059c-1.446-0.013-2.828-0.026-4.13-0.035l-0.305,47.91c0,0.965,0.078,1.894,0.16,2.878
						c0.081,0.964,0.164,1.962,0.164,2.989C401.22,337.003,390.2,337.967,369.083,337.967z"/>
				</g>
			</g>
			<g>
				<g>
					<path class="st7" d="M490.15,336.898c-12.895,0-19.582-6.23-20.445-19.047l-0.022-0.706
						c-1.598-54.131-1.933-81.533-1.933-94.988c0-10.379,0.332-20.892,0.654-31.058c0.316-10.021,0.644-20.384,0.644-30.469v-6.705
						l0.201-0.514c2.777-7.091,14.828-8.069,27.437-8.069c3.59,0,7.252,0.097,10.482,0.182c2.792,0.074,5.429,0.143,7.65,0.143
						l37.309-0.267l1.938,0c13.193,0,28.147,0,34.83,7.13c2.603,2.777,3.779,6.375,3.499,10.697l-1.324,20.435l-0.117,0.354
						c-1.302,3.944-4.043,6.26-8.628,7.288l-0.316,0.071h-26.94c-2.578,0-14.434,0.208-23.09,0.359
						c-3.366,0.059-5.973,0.104-7.776,0.134c-0.03,1.841-0.079,4.218-0.129,6.675c-0.08,3.93-0.162,7.994-0.162,9.435
						c0,0.995,0.17,4.294,0.32,7.206c0.086,1.667,0.17,3.286,0.231,4.625c0.053,0,0.107,0,0.162,0
						c7.244,0,25.027-0.336,38.012-0.581c7.794-0.147,13.95-0.264,15.478-0.264c8.141,0,12.073,0.89,12.969,9.022l0.018,0.159
						v19.423c0,14.427-5.043,14.427-21.75,14.427c-1.447,0-9.527,0.067-17.34,0.133c-8.186,0.069-15.917,0.134-17.39,0.134
						c-3.546,0-7.159,0.169-10.71,0.37v5.125c0.288,3.131,0.765,16.516,0.922,22.894c5.043-0.02,14.422-0.148,23.519-0.272
						c9.827-0.134,19.109-0.26,23.271-0.26c17.635,0,19.478,5.7,19.478,18.707c0,2.124-0.169,3.759-0.331,5.34
						c-0.163,1.578-0.316,3.068-0.316,5.093v3.746c0,10.242-11.739,13.892-22.725,13.892H490.15z"/>
				</g>
				<g>
					<path class="st7" d="M490.15,336.898c-12.895,0-19.582-6.23-20.445-19.047l-0.022-0.706
						c-1.598-54.131-1.933-81.533-1.933-94.988c0-10.379,0.332-20.892,0.654-31.058c0.316-10.021,0.644-20.384,0.644-30.469v-6.705
						l0.201-0.514c2.777-7.091,14.828-8.069,27.437-8.069c3.59,0,7.252,0.097,10.482,0.182c2.792,0.074,5.429,0.143,7.65,0.143
						l37.309-0.267l1.938,0c13.193,0,28.147,0,34.83,7.13c2.603,2.777,3.779,6.375,3.499,10.697l-1.324,20.435l-0.117,0.354
						c-1.302,3.944-4.043,6.26-8.628,7.288l-0.316,0.071h-26.94c-2.578,0-14.434,0.208-23.09,0.359
						c-3.366,0.059-5.973,0.104-7.776,0.134c-0.03,1.841-0.079,4.218-0.129,6.675c-0.08,3.93-0.162,7.994-0.162,9.435
						c0,0.995,0.17,4.294,0.32,7.206c0.086,1.667,0.17,3.286,0.231,4.625c0.053,0,0.107,0,0.162,0
						c7.244,0,25.027-0.336,38.012-0.581c7.794-0.147,13.95-0.264,15.478-0.264c8.141,0,12.073,0.89,12.969,9.022l0.018,0.159
						v19.423c0,14.427-5.043,14.427-21.75,14.427c-1.447,0-9.527,0.067-17.34,0.133c-8.186,0.069-15.917,0.134-17.39,0.134
						c-3.546,0-7.159,0.169-10.71,0.37v5.125c0.288,3.131,0.765,16.516,0.922,22.894c5.043-0.02,14.422-0.148,23.519-0.272
						c9.827-0.134,19.109-0.26,23.271-0.26c17.635,0,19.478,5.7,19.478,18.707c0,2.124-0.169,3.759-0.331,5.34
						c-0.163,1.578-0.316,3.068-0.316,5.093v3.746c0,10.242-11.739,13.892-22.725,13.892H490.15z"/>
				</g>
			</g>
		</g>
		<g>
			<g>
				<g>
					<path class="st6" d="M57.495,285.467c0,0,4.543,0.534,11.36,0.534c16.229,0,51.609,0.267,51.609-13.644
						c0-35.309-82.445-17.655-82.445-82.925c0-31.566,24.018-46.814,61.023-49.758c35.054,0,46.09,1.071,52.257,1.873
						c13.959,0,16.231,7.491,16.231,19.797c0,10.967,0.324,16.049-12.334,17.922c-15.581,0-29.213-0.534-40.249-0.534
						c-19.476,0-24.671,1.873-24.671,13.909c0,4.013,1.625,9.097,13.635,14.446c45.766,20.332,66.864,35.309,66.864,67.412
						c0,46.811-43.17,51.361-78.55,51.361c-17.203,0-49.013,5.349-50.961-11.237l0.326-24.075c0-2.407,4.219-4.28,6.491-5.082
						H57.495z"/>
				</g>
				<g>
					<path class="st6" d="M57.495,285.467c0,0,4.543,0.534,11.36,0.534c16.229,0,51.609,0.267,51.609-13.644
						c0-35.309-82.445-17.655-82.445-82.925c0-31.566,24.018-46.814,61.023-49.758c35.054,0,46.09,1.071,52.257,1.873
						c13.959,0,16.231,7.491,16.231,19.797c0,10.967,0.324,16.049-12.334,17.922c-15.581,0-29.213-0.534-40.249-0.534
						c-19.476,0-24.671,1.873-24.671,13.909c0,4.013,1.625,9.097,13.635,14.446c45.766,20.332,66.864,35.309,66.864,67.412
						c0,46.811-43.17,51.361-78.55,51.361c-17.203,0-49.013,5.349-50.961-11.237l0.326-24.075c0-2.407,4.219-4.28,6.491-5.082
						H57.495z"/>
				</g>
			</g>
			<g>
				<g>
					<path class="st6" d="M169.796,321.311v-1.603l49.663-170.669c5.517-12.573,31.159-9.631,46.74-9.631
						c17.527,0,26.291,1.338,31.486,10.433l1.298,2.14c1.298,2.407,3.244,11.237,3.571,12.84l35.054,155.956
						c0.326,0.534,0.974,3.211,0.974,3.746c0,1.606-1.622,2.407-3.247,2.407c-1.298,0-1.622,0-13.632-0.534
						c-7.789,0-15.255,0.534-23.046,0.534c-10.71,0-13.632-1.069-15.255-9.629l-7.465-41.732c-0.324,0-1.298-4.28-1.948-4.547
						h-33.756c-1.301,0-4.545,0.534-4.869,1.873l-12.01,48.15c0,4.817-10.062,5.618-19.152,5.618
						c-10.712,0-21.422-0.802-32.134-0.802C169.472,325.056,169.796,323.451,169.796,321.311z M245.102,236.246l21.422-0.804
						c-2.596-12.303-5.843-34.241-8.764-48.954l-0.974-1.336l-1.622,2.942c-0.324,1.606-1.949,6.687-1.949,7.222L245.102,236.246z"
						/>
				</g>
				<g>
					<path class="st6" d="M169.796,321.311v-1.603l49.663-170.669c5.517-12.573,31.159-9.631,46.74-9.631
						c17.527,0,26.291,1.338,31.486,10.433l1.298,2.14c1.298,2.407,3.244,11.237,3.571,12.84l35.054,155.956
						c0.326,0.534,0.974,3.211,0.974,3.746c0,1.606-1.622,2.407-3.247,2.407c-1.298,0-1.622,0-13.632-0.534
						c-7.789,0-15.255,0.534-23.046,0.534c-10.71,0-13.632-1.069-15.255-9.629l-7.465-41.732c-0.324,0-1.298-4.28-1.948-4.547
						h-33.756c-1.301,0-4.545,0.534-4.869,1.873l-12.01,48.15c0,4.817-10.062,5.618-19.152,5.618
						c-10.712,0-21.422-0.802-32.134-0.802C169.472,325.056,169.796,323.451,169.796,321.311z M245.102,236.246l21.422-0.804
						c-2.596-12.303-5.843-34.241-8.764-48.954l-0.974-1.336l-1.622,2.942c-0.324,1.606-1.949,6.687-1.949,7.222L245.102,236.246z"
						/>
				</g>
			</g>
			<g>
				<g>
					<path class="st6" d="M348.309,144.224c1.948-4.55,18.177-5.618,41.548-5.618c15.581,0,30.188,0.802,44.794,0.802h0.974
						c6.815,0.267,18.501,0.804,23.046,5.618c0,4.814,2.27,10.7,2.27,16.319c0,10.163-4.219,19.26-22.72,19.26
						c-13.308,0-26.293-1.071-38.951-1.071l-2.272,0.267c0,0.267-0.648,14.713-0.648,17.924c0,1.603,0.972,12.84,0.972,14.711
						c5.519,0,29.54,0.27,35.056,0.27c9.414,0,24.02-0.27,24.02,10.433v0.802c0,2.674,0.648,10.967,0.648,16.319
						c0,1.87-0.324,3.476-0.324,4.28c-0.65,9.362-40.573,7.756-58.427,7.756l-0.324,50.827c0,2.14,0.324,4.013,0.324,5.886
						c0,17.388-7.141,18.724-29.213,18.724c-8.764,0-18.825-1.87-20.123-12.573L348.309,144.224z"/>
				</g>
				<g>
					<path class="st6" d="M348.309,144.224c1.948-4.55,18.177-5.618,41.548-5.618c15.581,0,30.188,0.802,44.794,0.802h0.974
						c6.815,0.267,18.501,0.804,23.046,5.618c0,4.814,2.27,10.7,2.27,16.319c0,10.163-4.219,19.26-22.72,19.26
						c-13.308,0-26.293-1.071-38.951-1.071l-2.272,0.267c0,0.267-0.648,14.713-0.648,17.924c0,1.603,0.972,12.84,0.972,14.711
						c5.519,0,29.54,0.27,35.056,0.27c9.414,0,24.02-0.27,24.02,10.433v0.802c0,2.674,0.648,10.967,0.648,16.319
						c0,1.87-0.324,3.476-0.324,4.28c-0.65,9.362-40.573,7.756-58.427,7.756l-0.324,50.827c0,2.14,0.324,4.013,0.324,5.886
						c0,17.388-7.141,18.724-29.213,18.724c-8.764,0-18.825-1.87-20.123-12.573L348.309,144.224z"/>
				</g>
			</g>
			<g>
				<g>
					<path class="st6" d="M470.674,214.846c0-20.599,1.298-41.198,1.298-61.527v-6.153c3.247-8.293,29.54-5.886,42.846-5.886
						l37.329-0.267c18.501,0,38.301-0.267,37.329,14.713l-1.301,20.062c-0.972,2.944-2.92,4.55-6.491,5.351h-26.617
						c-4.219,0-32.134,0.534-33.756,0.534c0,2.944-0.326,16.051-0.326,18.993c0,2.14,0.65,12.573,0.65,14.713
						c4.545,0.267,51.936-0.802,56.478-0.802c7.465,0,9.414,0.534,10.062,6.418v19.263c0,11.502-1.946,11.502-18.825,11.502
						c-2.92,0-31.81,0.267-34.73,0.267c-4.545,0-9.09,0.267-13.635,0.534v8.026c0.326,3.209,0.974,22.472,0.974,25.68h1.625
						c9.088,0,39.599-0.534,48.039-0.534c15.581,0,16.553,4.013,16.553,15.782c0,4.013-0.648,6.153-0.648,10.433v3.746
						c0,8.56-11.36,10.967-19.799,10.967H490.15c-12.982,0-16.879-6.687-17.527-16.319
						C472.299,299.376,470.674,244.806,470.674,214.846z"/>
				</g>
				<g>
					<path class="st6" d="M470.674,214.846c0-20.599,1.298-41.198,1.298-61.527v-6.153c3.247-8.293,29.54-5.886,42.846-5.886
						l37.329-0.267c18.501,0,38.301-0.267,37.329,14.713l-1.301,20.062c-0.972,2.944-2.92,4.55-6.491,5.351h-26.617
						c-4.219,0-32.134,0.534-33.756,0.534c0,2.944-0.326,16.051-0.326,18.993c0,2.14,0.65,12.573,0.65,14.713
						c4.545,0.267,51.936-0.802,56.478-0.802c7.465,0,9.414,0.534,10.062,6.418v19.263c0,11.502-1.946,11.502-18.825,11.502
						c-2.92,0-31.81,0.267-34.73,0.267c-4.545,0-9.09,0.267-13.635,0.534v8.026c0.326,3.209,0.974,22.472,0.974,25.68h1.625
						c9.088,0,39.599-0.534,48.039-0.534c15.581,0,16.553,4.013,16.553,15.782c0,4.013-0.648,6.153-0.648,10.433v3.746
						c0,8.56-11.36,10.967-19.799,10.967H490.15c-12.982,0-16.879-6.687-17.527-16.319
						C472.299,299.376,470.674,244.806,470.674,214.846z"/>
				</g>
			</g>
		</g>
	</g>
	<g>
		<g>
			<path class="st8" d="M156.776,530.823v-1.069l-0.648-22.472c0.648-6.955,5.517-12.84,9.738-17.922l56.802-93.093
				c-0.974-0.267-4.545-0.534-5.517-0.534h-0.65c-3.895,0-21.748,0.534-25.967,0.534h-5.193l-18.828-1.338
				c-8.764-1.069-10.062-4.547-10.712-12.036l-1.298-21.668c1.949-4.013,12.984-4.28,17.853-4.28c4.545,0,38.301-0.267,42.846,0
				c6.491,0,35.704,0.267,42.198,0.802c9.411,0.534,12.982,0.804,14.604,10.166c0,0.802,0.65,4.013,0.65,4.28l1.298,21.133
				c-0.324,5.349-2.272,12.573-4.869,17.388l-54.856,93.627h11.686c9.738,0,17.203-0.537,26.941-0.537
				c7.465,0,17.851,0.804,18.501,9.899l1.298,24.075c0.324,4.547-4.545,5.886-8.44,6.42c-4.219-0.267-15.255,1.338-102.247-1.603
				C157.1,541.256,156.776,534.836,156.776,530.823z"/>
			<path class="st8" d="M419.023,532.429l-3.571-169.867c0-2.942,7.465-5.616,10.064-5.616l26.291-1.071
				c9.414-0.267,20.774,5.351,24.668,12.306c37.653,68.214,38.951,68.481,46.092,85.869l0.65,0.534l0.324-0.802l-1.948-80.52
				c-0.324-16.853,15.581-16.316,27.591-16.316c5.193,0,8.44,0.267,12.982,0.802c7.465,0.267,9.738,4.814,10.712,10.166
				c0,9.095,2.272,20.062,0,151.408c-0.324,17.922-0.648,23.004-14.283,24.609c-3.568,0-12.334,0.802-14.607,0.802
				c-0.324,0-7.465,0.27-10.386,0c-13.632-0.802-16.229-16.049-69.139-95.765c-0.324,0.802,4.545,7.756,4.545,80.787v6.687
				c0,2.407-5.193,5.349-7.789,5.883c-7.465,1.873-13.959,2.407-22.072,2.407h-1.948l-12.984-1.336
				C419.347,541.523,419.023,536.976,419.023,532.429z"/>
			<path class="st8" d="M587.15,431.58c0-20.599,1.298-41.198,1.298-61.527V363.9c3.247-8.293,29.54-5.886,42.846-5.886
				l37.329-0.267c18.501,0,38.301-0.267,37.329,14.713l-1.301,20.062c-0.972,2.944-2.92,4.55-6.491,5.351h-26.617
				c-4.219,0-32.134,0.534-33.756,0.534c0,2.944-0.326,16.051-0.326,18.993c0,2.14,0.65,12.573,0.65,14.713
				c4.545,0.267,51.936-0.802,56.478-0.802c7.465,0,9.414,0.534,10.062,6.418v19.263c0,11.502-1.946,11.502-18.825,11.502
				c-2.92,0-31.81,0.267-34.73,0.267c-4.545,0-9.09,0.267-13.635,0.534v8.026c0.326,3.209,0.974,22.472,0.974,25.68h1.625
				c9.087,0,39.599-0.534,48.039-0.534c15.581,0,16.553,4.013,16.553,15.782c0,4.013-0.648,6.153-0.648,10.433v3.746
				c0,8.56-11.36,10.967-19.799,10.967h-77.578c-12.982,0-16.879-6.687-17.527-16.319C588.775,516.11,587.15,461.54,587.15,431.58z"
				/>
		</g>
		<g>
			<path class="st9" d="M244.117,554.635c-19.131,0-46.802-0.608-82.246-1.807l-0.344-0.012l-0.332-0.091
				c-7.343-2.018-7.343-11.152-7.343-14.592v-1.068L153.2,514.5l0.017-0.178c0.727-7.802,5.982-14.2,10.264-19.355l54.292-88.979
				c-0.251-0.013-0.464-0.02-0.621-0.02h-0.65c-1.873,0-7.256,0.131-12.462,0.259c-5.564,0.136-11.317,0.276-13.504,0.276h-5.297
				l-19.004-1.352l-0.073-0.009c-11.232-1.369-12.622-7.203-13.272-14.687l-1.35-22.51l0.334-0.688
				c1.963-4.043,8.472-5.927,20.484-5.927c1.02,0,3.514-0.014,6.82-0.031c6.511-0.035,16.16-0.088,23.908-0.088
				c6.714,0,10.708,0.039,12.2,0.119c6.612,0.002,35.699,0.264,42.355,0.811c9.133,0.519,15.216,0.864,17.247,12.582l0.043,0.247
				v0.252c0.019,0.357,0.291,1.897,0.408,2.556c0.167,0.944,0.228,1.284,0.24,1.593l1.307,21.264l-0.011,0.178
				c-0.359,5.925-2.503,13.573-5.214,18.6l-52.327,89.314h6.583c4.823,0,9.173-0.136,13.379-0.267
				c4.251-0.133,8.647-0.271,13.561-0.271c5.611,0,20.517,0,21.418,12.614l1.302,24.127c0.255,3.573-1.437,8.168-10.962,9.475
				l-0.29,0.04l-0.292-0.019c-0.299-0.02-0.638-0.026-1.052-0.026c-0.742,0-1.693,0.023-3,0.054
				C257.098,554.522,252.276,554.635,244.117,554.635z"/>
			<path class="st9" d="M537.523,555.087c-1.854,0-3.224-0.043-4.188-0.132c-10.382-0.609-15.012-8.087-32.235-35.91
				c-7.571-12.232-17.538-28.333-31.587-49.795c1.952,18.019,2.423,45.514,2.423,67.815v6.688c0,4.645-7.129,8.1-10.056,8.732
				c-7.044,1.763-13.634,2.482-22.73,2.482h-2.1l-13.521-1.392l-0.364-0.14c-7.067-2.719-7.067-9.86-7.067-13.697l-3.569-169.805
				c-0.001-5.533,9.613-8.559,12.917-8.602l26.243-1.069c0.279-0.009,0.524-0.012,0.77-0.012c10.387,0,22.306,6.195,26.569,13.811
				c11.581,20.981,19.711,35.513,25.647,46.123c8.64,15.443,12.604,22.527,15.649,28.82l-1.654-68.362
				c-0.107-5.607,1.416-10.053,4.528-13.227c5.515-5.621,14.399-6.087,23.79-6.087l2.196,0.002c5.318,0,8.64,0.272,13.21,0.808
				c11.158,0.466,12.815,9.563,13.361,12.56l0.048,0.26v0.265c0,1.594,0.072,3.246,0.182,5.748
				c0.502,11.435,1.678,38.212-0.183,145.711c-0.316,17.531-0.462,25.532-16.864,27.463l-0.17,0.021h-0.172
				c-1.884,0-5.434,0.245-8.564,0.461c-2.647,0.183-4.934,0.341-6.043,0.341l-0.425,0.013
				C542.479,555.012,539.937,555.087,537.523,555.087z"/>
			<path class="st9" d="M606.625,553.632c-12.896,0-19.583-6.23-20.444-19.047l-0.017-0.507
				c-1.269-42.869-1.938-75.785-1.938-95.188c0-10.38,0.332-20.892,0.654-31.058c0.316-10.021,0.644-20.384,0.644-30.469v-6.705
				l0.201-0.515c2.777-7.091,14.827-8.068,27.437-8.068c3.59,0,7.252,0.096,10.482,0.182c2.792,0.073,5.429,0.143,7.65,0.143
				l37.309-0.268h1.932c13.196,0,28.153,0,34.837,7.131c2.603,2.777,3.779,6.376,3.499,10.697l-1.324,20.434l-0.117,0.355
				c-1.302,3.942-4.043,6.259-8.628,7.288l-0.316,0.071h-26.941c-2.578,0-14.434,0.207-23.09,0.358
				c-3.367,0.06-5.973,0.104-7.776,0.135c-0.03,1.841-0.079,4.218-0.129,6.677c-0.08,3.929-0.162,7.992-0.162,9.433
				c0,0.994,0.171,4.294,0.321,7.205c0.086,1.667,0.17,3.287,0.231,4.626c0.053,0,0.106,0,0.161,0
				c7.241,0,25.024-0.336,38.009-0.581c7.796-0.147,13.954-0.264,15.481-0.264c8.14,0,12.072,0.891,12.969,9.022l0.018,0.159v19.424
				c0,14.427-5.043,14.427-21.75,14.427c-1.448,0-9.528,0.067-17.343,0.134c-8.185,0.068-15.916,0.134-17.388,0.134
				c-3.552,0-7.162,0.169-10.71,0.369v5.125c0.288,3.133,0.766,16.517,0.923,22.894c5.044-0.02,14.423-0.147,23.519-0.271
				c9.827-0.133,19.11-0.26,23.271-0.26c17.635,0,19.478,5.7,19.478,18.707c0,2.124-0.169,3.759-0.332,5.34
				c-0.163,1.578-0.316,3.068-0.316,5.093v3.745c0,10.243-11.738,13.893-22.724,13.893H606.625z"/>
		</g>
		<g>
			<path class="st8" d="M156.776,530.823v-1.069l-0.648-22.472c0.648-6.955,5.517-12.84,9.738-17.922l56.802-93.093
				c-0.974-0.267-4.545-0.534-5.517-0.534h-0.65c-3.895,0-21.748,0.534-25.967,0.534h-5.193l-18.828-1.338
				c-8.764-1.069-10.062-4.547-10.712-12.036l-1.298-21.668c1.949-4.013,12.984-4.28,17.853-4.28c4.545,0,38.301-0.267,42.846,0
				c6.491,0,35.704,0.267,42.198,0.802c9.411,0.534,12.982,0.804,14.604,10.166c0,0.802,0.65,4.013,0.65,4.28l1.298,21.133
				c-0.324,5.349-2.272,12.573-4.869,17.388l-54.856,93.627h11.686c9.738,0,17.203-0.537,26.941-0.537
				c7.465,0,17.851,0.804,18.501,9.899l1.298,24.075c0.324,4.547-4.545,5.886-8.44,6.42c-4.219-0.267-15.255,1.338-102.247-1.603
				C157.1,541.256,156.776,534.836,156.776,530.823z"/>
			<path class="st8" d="M419.023,532.429l-3.571-169.867c0-2.942,7.465-5.616,10.064-5.616l26.291-1.071
				c9.414-0.267,20.774,5.351,24.668,12.306c37.653,68.214,38.951,68.481,46.092,85.869l0.65,0.534l0.324-0.802l-1.948-80.52
				c-0.324-16.853,15.581-16.316,27.591-16.316c5.193,0,8.44,0.267,12.982,0.802c7.465,0.267,9.738,4.814,10.712,10.166
				c0,9.095,2.272,20.062,0,151.408c-0.324,17.922-0.648,23.004-14.283,24.609c-3.568,0-12.334,0.802-14.607,0.802
				c-0.324,0-7.465,0.27-10.386,0c-13.632-0.802-16.229-16.049-69.139-95.765c-0.324,0.802,4.545,7.756,4.545,80.787v6.687
				c0,2.407-5.193,5.349-7.789,5.883c-7.465,1.873-13.959,2.407-22.072,2.407h-1.948l-12.984-1.336
				C419.347,541.523,419.023,536.976,419.023,532.429z"/>
			<path class="st8" d="M587.15,431.58c0-20.599,1.298-41.198,1.298-61.527V363.9c3.247-8.293,29.54-5.886,42.846-5.886
				l37.329-0.267c18.501,0,38.301-0.267,37.329,14.713l-1.301,20.062c-0.972,2.944-2.92,4.55-6.491,5.351h-26.617
				c-4.219,0-32.134,0.534-33.756,0.534c0,2.944-0.326,16.051-0.326,18.993c0,2.14,0.65,12.573,0.65,14.713
				c4.545,0.267,51.936-0.802,56.478-0.802c7.465,0,9.414,0.534,10.062,6.418v19.263c0,11.502-1.946,11.502-18.825,11.502
				c-2.92,0-31.81,0.267-34.73,0.267c-4.545,0-9.09,0.267-13.635,0.534v8.026c0.326,3.209,0.974,22.472,0.974,25.68h1.625
				c9.087,0,39.599-0.534,48.039-0.534c15.581,0,16.553,4.013,16.553,15.782c0,4.013-0.648,6.153-0.648,10.433v3.746
				c0,8.56-11.36,10.967-19.799,10.967h-77.578c-12.982,0-16.879-6.687-17.527-16.319C588.775,516.11,587.15,461.54,587.15,431.58z"
				/>
		</g>
	</g>
	<g>
		<path class="st3" d="M300.792,440.96c0.457-0.699,0.691-1.52,0.67-2.355l-1.534-60.426c-0.383-7.544,5.483-13.716,13.036-13.716h0
			c7.554,0,14.048,6.172,14.431,13.716l1.574,59.074c0.072,1.417,1.101,2.679,2.51,2.847c1.645,0.197,3.075-1.013,3.199-2.616
			l6.979-74.232c0.583-7.553,7.179-13.203,14.732-12.62l0,0c7.553,0.583,13.203,7.179,12.62,14.732l-6.782,71.68
			c-0.128,1.66,1.184,3.077,2.848,3.077h0.496c1.36,0,2.532-0.959,2.801-2.293l10.242-50.849
			c1.519-7.544,6.662-14.932,16.754-13.716h0c8.196,0.816,12.749,6.172,11.229,13.716l-11.105,55.135
			c-0.037,0.185-0.056,0.374-0.056,0.563l-6.816,30.233c-0.365,1.619,1.64,2.684,2.777,1.476l18.226-19.357
			c5.186-5.959,14.228-7.1,20.424-2.2c6.615,5.232,7.454,14.862,1.98,21.151l-43.555,50.021
			c-11.325,12.642-25.662,25.85-44.807,25.85h-18.383c-28.592,0-51.77-23.178-51.77-51.77v0c0-15.637-1.783-31.223-5.314-46.456
			l-9.438-46.809c-1.76-7.594,3.157-15.177,10.914-16.594c7.265-1.328,14.23,3.582,15.898,10.776l7.324,40.13
			c0.182,0.997,0.725,1.891,1.526,2.512l0.41,0.318C296.73,443.428,299.478,442.968,300.792,440.96L300.792,440.96z"/>
		<g>
			<g>
				<path class="st10" d="M346.982,466.192c-0.38,0.367-0.775,0.71-1.186,1.042c0.41-0.332,0.042-0.034-0.159,0.107
					c-0.273,0.191-0.547,0.38-0.826,0.562c-1.063,0.689-2.178,1.296-3.317,1.85c-0.617,0.3-1.242,0.586-1.873,0.856
					c0.388-0.166-0.3,0.122-0.408,0.166c-0.385,0.155-0.772,0.306-1.16,0.453c-1.413,0.535-2.846,1.017-4.291,1.461
					c-3.015,0.926-6.082,1.685-9.17,2.321c-1.523,0.314-3.052,0.596-4.586,0.847c-0.742,0.122-1.485,0.236-2.229,0.342
					c-0.682,0.098-0.765,0.109-1.667,0.216c-2.798,0.333-5.618,0.566-8.437,0.548c-3.862-0.026-3.866,5.974,0,6
					c5.808,0.038,11.672-0.827,17.359-1.936c6.401-1.248,12.77-2.984,18.706-5.721c2.704-1.247,5.336-2.791,7.489-4.871
					C354.006,467.746,349.76,463.507,346.982,466.192L346.982,466.192z"/>
			</g>
		</g>
		<g>
			<g>
				<path class="st10" d="M353.232,480.481c-12.347,7.396-21.441,19.877-24.566,33.942c-0.351,1.58,0.478,3.246,2.095,3.69
					c1.504,0.413,3.337-0.507,3.69-2.095c2.795-12.583,10.72-23.714,21.808-30.356C359.57,483.68,356.556,478.49,353.232,480.481
					L353.232,480.481z"/>
			</g>
		</g>
	</g>
	<g>
		<path class="st11" d="M350.693,108.939c0,1.215-0.431,2.242-1.288,3.08c-0.86,0.837-1.899,1.257-3.113,1.257
			c-1.217,0-2.253-0.42-3.113-1.257c-0.857-0.838-1.288-1.865-1.288-3.08V86.245c0-0.21-0.094-0.336-0.283-0.377
			c-0.188-0.041-0.326,0.041-0.408,0.251l-9.996,24.265c-1.005,1.928-2.473,2.892-4.398,2.892c-1.928,0-3.396-0.964-4.401-2.892
			l-10.059-24.328c-0.083-0.167-0.22-0.23-0.408-0.188s-0.283,0.167-0.283,0.377v22.694c0,1.215-0.43,2.242-1.289,3.08
			c-0.86,0.837-1.896,1.257-3.112,1.257c-1.216,0-2.253-0.42-3.112-1.257c-0.86-0.838-1.289-1.865-1.289-3.08V74.552
			c0-1.676,0.586-3.102,1.76-4.275c1.173-1.172,2.598-1.759,4.275-1.759c2.263,0,3.98,1.131,5.154,3.394l12.449,28.98
			c0.208,0.294,0.417,0.294,0.628,0l12.447-28.98c1.174-2.263,2.89-3.394,5.155-3.394c1.634,0,3.039,0.575,4.21,1.728
			c1.174,1.154,1.762,2.568,1.762,4.244V108.939z"/>
		<path class="st11" d="M368.169,108.75c0,1.215-0.431,2.252-1.289,3.112c-0.86,0.86-1.896,1.288-3.112,1.288
			c-1.217,0-2.253-0.428-3.112-1.288c-0.86-0.86-1.288-1.896-1.288-3.112V72.854c0-1.215,0.428-2.242,1.288-3.08
			c0.858-0.838,1.895-1.257,3.112-1.257c1.215,0,2.252,0.418,3.112,1.257c0.858,0.838,1.289,1.865,1.289,3.08V108.75z"/>
		<path class="st11" d="M377.787,107.178l-0.063-0.063c-0.965-1.549-1.017-3.09-0.157-4.621c0.858-1.529,2.169-2.293,3.928-2.293
			h0.063c0.838,0,1.624,0.21,2.358,0.628c0.733,0.42,1.288,1.005,1.667,1.759c0.334,0.714,0.795,1.342,1.382,1.886
			c1.131,1.048,2.703,1.572,4.715,1.572c2.052,0,3.666-0.504,4.84-1.509c1.174-0.964,1.761-2.242,1.761-3.834
			c0-1.299-0.398-2.368-1.194-3.206c-0.797-0.838-1.782-1.509-2.955-2.012c-1.217-0.461-2.872-0.984-4.967-1.572
			c-2.85-0.837-5.155-1.675-6.916-2.513c-1.802-0.797-3.332-2.033-4.588-3.71c-1.299-1.634-1.949-3.834-1.949-6.6
			c0-2.598,0.65-4.861,1.949-6.789c1.298-1.928,3.122-3.416,5.469-4.464c2.346-1.005,5.028-1.508,8.045-1.508
			c4.527,0,8.214,1.09,11.064,3.269c0.713,0.587,1.362,1.215,1.949,1.885c1.131,1.594,1.288,3.217,0.471,4.872
			c-0.817,1.657-2.169,2.483-4.054,2.483h-0.126c-1.594,0-2.872-0.733-3.836-2.201c-0.336-0.585-0.775-1.11-1.319-1.571
			c-1.217-0.964-2.809-1.447-4.778-1.447c-1.718,0-3.08,0.44-4.086,1.321c-1.048,0.88-1.572,2.158-1.572,3.834
			c0,1.174,0.398,2.138,1.195,2.892c0.754,0.797,1.718,1.425,2.892,1.886c1.131,0.503,2.745,1.068,4.84,1.696
			c2.85,0.84,5.177,1.676,6.979,2.515c1.801,0.838,3.352,2.096,4.651,3.771c1.299,1.676,1.949,3.877,1.949,6.602
			c0,2.348-0.608,4.525-1.824,6.537c-1.215,2.012-2.996,3.626-5.342,4.841c-2.348,1.174-5.135,1.759-8.361,1.759
			c-3.06,0-5.805-0.523-8.235-1.571C381.16,110.657,379.21,109.149,377.787,107.178z"/>
		<path class="st11" d="M416.007,107.178l-0.063-0.063c-0.965-1.549-1.017-3.09-0.157-4.621c0.858-1.529,2.169-2.293,3.928-2.293
			h0.063c0.838,0,1.624,0.21,2.358,0.628c0.733,0.42,1.288,1.005,1.667,1.759c0.334,0.714,0.795,1.342,1.382,1.886
			c1.131,1.048,2.703,1.572,4.715,1.572c2.052,0,3.666-0.504,4.84-1.509c1.174-0.964,1.761-2.242,1.761-3.834
			c0-1.299-0.398-2.368-1.194-3.206c-0.797-0.838-1.782-1.509-2.955-2.012c-1.217-0.461-2.872-0.984-4.966-1.572
			c-2.85-0.837-5.155-1.675-6.916-2.513c-1.802-0.797-3.332-2.033-4.588-3.71c-1.299-1.634-1.949-3.834-1.949-6.6
			c0-2.598,0.65-4.861,1.949-6.789c1.298-1.928,3.122-3.416,5.469-4.464c2.346-1.005,5.028-1.508,8.045-1.508
			c4.527,0,8.214,1.09,11.064,3.269c0.713,0.587,1.362,1.215,1.949,1.885c1.131,1.594,1.288,3.217,0.471,4.872
			c-0.817,1.657-2.169,2.483-4.054,2.483h-0.126c-1.594,0-2.872-0.733-3.836-2.201c-0.336-0.585-0.775-1.11-1.319-1.571
			c-1.217-0.964-2.809-1.447-4.778-1.447c-1.717,0-3.08,0.44-4.085,1.321c-1.048,0.88-1.572,2.158-1.572,3.834
			c0,1.174,0.398,2.138,1.195,2.892c0.754,0.797,1.718,1.425,2.892,1.886c1.131,0.503,2.744,1.068,4.839,1.696
			c2.85,0.84,5.177,1.676,6.979,2.515c1.801,0.838,3.352,2.096,4.651,3.771c1.299,1.676,1.949,3.877,1.949,6.602
			c0,2.348-0.608,4.525-1.824,6.537s-2.996,3.626-5.342,4.841c-2.348,1.174-5.135,1.759-8.361,1.759
			c-3.06,0-5.804-0.523-8.235-1.571C419.38,110.657,417.431,109.149,416.007,107.178z"/>
		<path class="st11" d="M462.087,108.75c0,1.215-0.431,2.252-1.289,3.112c-0.86,0.86-1.896,1.288-3.112,1.288
			c-1.217,0-2.253-0.428-3.112-1.288c-0.86-0.86-1.288-1.896-1.288-3.112V72.854c0-1.215,0.428-2.242,1.288-3.08
			c0.858-0.838,1.895-1.257,3.112-1.257c1.215,0,2.252,0.418,3.112,1.257c0.858,0.838,1.289,1.865,1.289,3.08V108.75z"/>
		<path class="st11" d="M513.572,90.77c0,4.401-1.005,8.288-3.017,11.661c-2.011,3.374-4.714,6.026-8.11,7.953
			c-3.394,1.928-7.166,2.892-11.314,2.892c-4.108,0-7.87-0.964-11.284-2.892c-3.417-1.926-6.14-4.578-8.173-7.953
			c-2.034-3.373-3.049-7.26-3.049-11.661c0-4.4,1.015-8.287,3.049-11.661c2.032-3.373,4.755-6.013,8.173-7.92
			c3.414-1.908,7.176-2.86,11.284-2.86c4.19,0,7.973,0.952,11.347,2.86c3.373,1.906,6.066,4.547,8.077,7.92
			C512.567,82.483,513.572,86.37,513.572,90.77z M477.677,90.77c0,4.443,1.247,7.995,3.74,10.656
			c2.493,2.662,5.731,3.991,9.713,3.991c3.98,0,7.207-1.329,9.681-3.991c2.472-2.66,3.709-6.213,3.709-10.656
			c0-4.484-1.237-8.024-3.709-10.623c-2.473-2.599-5.701-3.898-9.681-3.898c-3.983,0-7.22,1.299-9.713,3.898
			C478.924,82.746,477.677,86.286,477.677,90.77z"/>
		<path class="st11" d="M551.92,113.276c-1.761,0-3.229-0.775-4.401-2.326l-17.916-27.157c-0.461-0.21-0.691-0.147-0.691,0.188
			v24.895c0,1.215-0.431,2.253-1.29,3.112c-0.86,0.858-1.896,1.288-3.112,1.288c-1.217,0-2.253-0.43-3.112-1.288
			c-0.86-0.858-1.288-1.896-1.288-3.112V73.859c0-1.508,0.523-2.786,1.571-3.834c1.047-1.047,2.326-1.571,3.834-1.571
			c1.928,0,3.522,0.858,4.778,2.578l17.916,27.094c0.418,0.21,0.628,0.147,0.628-0.188V72.854c0-1.215,0.43-2.252,1.289-3.112
			c0.858-0.858,1.895-1.288,3.112-1.288c1.215,0,2.252,0.43,3.112,1.288c0.858,0.86,1.29,1.896,1.29,3.112v34.701
			c0,1.594-0.557,2.945-1.667,4.056C554.863,112.722,553.512,113.276,551.92,113.276z"/>
	</g>
</g>
<g>
</g>
<g>
</g>
<g>
</g>
<g>
</g>
<g>
</g>
</svg>
