<?xml version="1.0" encoding="utf-8"?>
<!-- Generator: Adobe Illustrator 27.9.0, SVG Export Plug-In . SVG Version: 6.00 Build 0)  -->
<svg version="1.1" id="Layer_1" xmlns="http://www.w3.org/2000/svg" xmlns:xlink="http://www.w3.org/1999/xlink" x="0px" y="0px"
	 viewBox="0 0 860.5 588.7" style="enable-background:new 0 0 860.5 588.7;" xml:space="preserve">
<style type="text/css">
	.st0{display:none;}
	.st1{display:inline;}
	.st2{fill:#FFFFFF;}
	.st3{fill:#CFE5C1;}
	.st4{fill:#FCE0D9;}
	.st5{fill:#F85C41;}
	.st6{fill:#493227;}
	.st7{fill:#81C6F5;}
	.st8{fill:#149AC9;}
	.st9{fill:#FFCB00;}
	.st10{fill:#DB9C00;}
	.st11{fill:#FFC6BB;}
	.st12{fill:#FF7E1E;}
</style>
<g class="st0">
	<path class="st1" d="M848.9,206.6c-8.2-18.7-20.5-34.8-35.7-47.3L822,130c15.7-52.7-13.6-108.9-65.2-125.3C747,1.6,736.8,0,726.5,0
		c-16.5,0-33,4.2-47.6,12.1c-23.5,12.7-40.6,33.8-48.3,59.4l-3.8,12.6c-1.8,5.9-2.3,11.9-1.7,17.7c-13.4,1.1-26.6,4.3-39.2,9.6
		c-2.5-0.6-5-1-7.5-1.4V78.7c0-16-13-29.1-29.1-29.1H310.1c-16,0-29.1,13-29.1,29.1v29c-5.6-0.5-10.7-0.5-14.9-0.5
		c-1.9,0-4.2-0.1-6.7-0.1c-3.1-0.1-6.6-0.2-10.3-0.2c-10.5,0-39.3,0-56.5,19.9c-9.9-11.6-24.4-16.8-38.6-17.4
		c-8.8-1-22.4-1.9-55.1-1.9c-1,0-2,0-3,0.1c-26.6,2.1-48.3,9.5-64.5,21.8C11.2,145,0,168.4,0,195.3c0,25.9,9,48,26,64.4
		C5.9,270.9,3.7,289.3,3.6,295.9L3.2,320c0,1.7,0.1,3.3,0.3,5c2.2,19,14.8,34.3,33.7,41.1c8.5,3.1,18.3,4.5,30.8,4.5l0,0
		c5.5,0,10.8-0.3,15.4-0.5c3.4-0.2,6.6-0.3,8.8-0.3c7.5,0,15.7-0.2,24.3-0.9c0,0.2,0,0.4,0,0.6l1.3,21.7c0,0.3,0,0.7,0.1,1
		c2.8,32.7,24.9,42.6,38.6,45.6l-21.7,35.5c-6,7.4-15,19.6-16.5,36.5c-0.1,1.5-0.2,3.1-0.1,4.6l0.6,21.9v0.5
		c0,36.5,25.4,46.3,33.1,48.4c2.9,0.8,5.8,1.2,8.8,1.3c35.8,1.2,63.9,1.8,83.4,1.8c8.6,0,13.6-0.1,16.7-0.2c0.8,0,1.4,0,1.9,0
		s1,0,1.5,0c1.7,0,3.5-0.1,5.2-0.4c7.8-1.1,14.4-3.4,19.8-6.6c11,4.9,23.2,7.6,36.1,7.6h18.4c20.1,0,36.6-7.6,49-16.3
		c6.2,7,13.5,10.7,17.9,12.4c3.1,1.2,6.4,2,9.8,2.3l13,1.3c1.3,0.1,2.6,0.2,3.9,0.2h1.9c8.4,0,18.5-0.4,30.8-3.4
		c9.2-2.1,18.4-7,25.3-14.2c5.7,6.2,17.1,16.3,35.6,17.5c1.9,0.2,4.1,0.2,6.8,0.2l0,0c2.9,0,5.8-0.1,7.1-0.1h0.1
		c2,0,4.3-0.2,7.8-0.4c1.8-0.1,5.2-0.4,6.1-0.4c1.5,0,3-0.1,4.4-0.3c7.5-0.9,13.7-2.7,19-5.1c7.2,3.2,15.5,4.9,24.6,4.9h77.6
		c39.7,0,57.8-25.4,57.8-49v-3.7c0-0.2,0-0.4,0.1-1.5c0.2-2,0.5-5,0.5-8.9c0-6.7,0-19.6-7.6-31.7c5.1-7.8,7.6-17.7,7.6-29.5v-19.3
		c0-1.4-0.1-2.8-0.2-4.2c-0.9-8-3.2-14.3-6.2-19.3c1.9-3,3.4-6.3,4.5-9.8c1-3.1,1.6-6.2,1.8-9.5l0.1-1.3l39.4-13.6
		c1.8-0.6,3.6-1.4,5.3-2.3c11.2-5.8,21.5-13.3,30.7-22.1c1-0.8,1.9-1.7,2.8-2.6C860.2,318.7,871.5,257.4,848.9,206.6z"/>
</g>
<g>
	<path class="st2" d="M848.9,206.6c-8.2-18.7-20.5-34.8-35.7-47.3L822,130c15.7-52.7-13.6-108.9-65.2-125.3C747,1.6,736.8,0,726.5,0
		c-16.5,0-33,4.2-47.6,12.1c-23.5,12.7-40.6,33.8-48.3,59.4l-3.8,12.6c-1.8,5.9-2.3,11.9-1.7,17.7c-13.4,1.1-26.6,4.3-39.2,9.6
		c-2.5-0.6-5-1-7.5-1.4V78.7c0-16-13-29.1-29.1-29.1H310.1c-16,0-29.1,13-29.1,29.1v29c-5.6-0.5-10.7-0.5-14.9-0.5
		c-1.9,0-4.2-0.1-6.7-0.1c-3.1-0.1-6.6-0.2-10.3-0.2c-10.5,0-39.3,0-56.5,19.9c-9.9-11.6-24.4-16.8-38.6-17.4
		c-8.8-1-22.4-1.9-55.1-1.9c-1,0-2,0-3,0.1c-26.6,2.1-48.3,9.5-64.5,21.8C11.2,145,0,168.4,0,195.3c0,25.9,9,48,26,64.4
		C5.9,270.9,3.7,289.3,3.6,295.9L3.2,320c0,1.7,0.1,3.3,0.3,5c2.2,19,14.8,34.3,33.7,41.1c8.5,3.1,18.3,4.5,30.8,4.5l0,0
		c5.5,0,10.8-0.3,15.4-0.5c3.4-0.2,6.6-0.3,8.8-0.3c7.5,0,15.7-0.2,24.3-0.9c0,0.2,0,0.4,0,0.6l1.3,21.7c0,0.3,0,0.7,0.1,1
		c2.8,32.7,24.9,42.6,38.6,45.6l-21.7,35.5c-6,7.4-15,19.6-16.5,36.5c-0.1,1.5-0.2,3.1-0.1,4.6l0.6,21.9v0.5
		c0,36.5,25.4,46.3,33.1,48.4c2.9,0.8,5.8,1.2,8.8,1.3c35.8,1.2,63.9,1.8,83.4,1.8c8.6,0,13.6-0.1,16.7-0.2c0.8,0,1.4,0,1.9,0
		s1,0,1.5,0c1.7,0,3.5-0.1,5.2-0.4c7.8-1.1,14.4-3.4,19.8-6.6c11,4.9,23.2,7.6,36.1,7.6h18.4c20.1,0,36.6-7.6,49-16.3
		c6.2,7,13.5,10.7,17.9,12.4c3.1,1.2,6.4,2,9.8,2.3l13,1.3c1.3,0.1,2.6,0.2,3.9,0.2h1.9c8.4,0,18.5-0.4,30.8-3.4
		c9.2-2.1,18.4-7,25.3-14.2c5.7,6.2,17.1,16.3,35.6,17.5c1.9,0.2,4.1,0.2,6.8,0.2l0,0c2.9,0,5.8-0.1,7.1-0.1h0.1
		c2,0,4.3-0.2,7.8-0.4c1.8-0.1,5.2-0.4,6.1-0.4c1.5,0,3-0.1,4.4-0.3c7.5-0.9,13.7-2.7,19-5.1c7.2,3.2,15.5,4.9,24.6,4.9h77.6
		c39.7,0,57.8-25.4,57.8-49v-3.7c0-0.2,0-0.4,0.1-1.5c0.2-2,0.5-5,0.5-8.9c0-6.7,0-19.6-7.6-31.7c5.1-7.8,7.6-17.7,7.6-29.5v-19.3
		c0-1.4-0.1-2.8-0.2-4.2c-0.9-8-3.2-14.3-6.2-19.3c1.9-3,3.4-6.3,4.5-9.8c1-3.1,1.6-6.2,1.8-9.5l0.1-1.3l39.4-13.6
		c1.8-0.6,3.6-1.4,5.3-2.3c11.2-5.8,21.5-13.3,30.7-22.1c1-0.8,1.9-1.7,2.8-2.6C860.2,318.7,871.5,257.4,848.9,206.6z"/>
	<g>
		<g>
			<g>
				<path class="st3" d="M170.8,274.5c0-32.1-21.1-47.1-66.9-67.4c-12-5.3-13.6-10.4-13.6-14.4c0-12,5.2-13.9,24.7-13.9
					c11,0,24.7,0.5,40.2,0.5c12.7-1.9,12.3-7,12.3-17.9c0-12.3-2.3-19.8-16.2-19.8c-6.2-0.8-17.2-1.9-52.3-1.9
					c-37,2.9-61,18.2-61,49.8c0,65.3,82.4,47.6,82.4,82.9c0,13.9-35.4,13.6-51.6,13.6c-6.8,0-11.4-0.5-11.4-0.5H48
					c-2.3,0.8-6.5,2.7-6.5,5.1l-0.3,24.1c1.9,16.6,33.8,11.2,51,11.2C127.6,325.9,170.8,321.3,170.8,274.5z"/>
			</g>
			<g>
				<g>
					<path class="st3" d="M169.8,321.3c0,2.1-0.3,3.7,2.3,4.5c10.7,0,21.4,0.8,32.1,0.8c9.1,0,19.2-0.8,19.2-5.6l12-48.1
						c0.3-1.3,3.6-1.9,4.9-1.9H274c0.7,0.3,1.6,4.5,1.9,4.5l7.5,41.7c1.6,8.6,4.5,9.6,15.3,9.6c7.8,0,15.3-0.5,23-0.5
						c12,0.5,12.3,0.5,13.6,0.5c1.6,0,3.2-0.8,3.2-2.4c0-0.5-0.6-3.2-1-3.7l-35.1-156c-0.3-1.6-2.3-10.4-3.6-12.8l-1.3-2.1
						c-5.2-9.1-14-10.4-31.5-10.4c-15.6,0-41.2-2.9-46.7,9.6l-49.7,170.7v1.6H169.8z M253.2,195.3c0-0.5,1.6-5.6,1.9-7.2l1.6-2.9
						l1,1.3c2.9,14.7,6.2,36.7,8.8,49l-21.4,0.8L253.2,195.3z"/>
				</g>
			</g>
			<g>
				<path class="st3" d="M369.1,327.7c22.1,0,29.2-1.3,29.2-18.7c0-1.9-0.3-3.7-0.3-5.9l0.3-50.8c17.9,0,57.8,1.6,58.4-7.8
					c0-0.8,0.3-2.4,0.3-4.3c0-5.4-0.6-13.6-0.6-16.3v-0.8c0-10.7-14.6-10.4-24-10.4c-5.5,0-29.5-0.3-35.1-0.3c0-1.9-1-13.1-1-14.7
					c0-3.2,0.6-17.7,0.6-17.9l2.3-0.3c12.7,0,25.6,1.1,39,1.1c18.5,0,22.7-9.1,22.7-19.3c0-5.6-2.3-11.5-2.3-16.3
					c-4.5-4.8-16.2-5.4-23-5.6h-1c-14.6,0-29.2-0.8-44.8-0.8c-23.4,0-39.6,1.1-41.5,5.6l0.7,170.9
					C350.3,325.9,360.3,327.7,369.1,327.7z"/>
			</g>
			<g>
				<path class="st3" d="M587.5,311.9c0-4.3,0.6-6.4,0.6-10.4c0-11.8-1-15.8-16.6-15.8c-8.4,0-39,0.5-48,0.5H522
					c0-3.2-0.6-22.5-1-25.7v-8c4.5-0.3,9.1-0.5,13.6-0.5c2.9,0,31.8-0.3,34.7-0.3c16.9,0,18.8,0,18.8-11.5V221
					c-0.6-5.9-2.6-6.4-10.1-6.4c-4.5,0-51.9,1.1-56.5,0.8c0-2.1-0.7-12.6-0.7-14.7c0-2.9,0.3-16,0.3-19c1.6,0,29.5-0.5,33.8-0.5
					h26.6c3.6-0.8,5.5-2.4,6.5-5.4l1.3-20.1c1-15-18.8-14.7-37.3-14.7l-37.3,0.3c-13.3,0-39.6-2.4-42.8,5.9v6.2
					c0,20.3-1.3,40.9-1.3,61.5c0,30,1.6,84.5,1.9,95.5c0.6,9.6,4.5,16.3,17.5,16.3h77.6c8.4,0,19.8-2.4,19.8-11v-3.8H587.5z"/>
			</g>
			<g>
				<path class="st3" d="M562.2,357.7c-4.5-0.5-7.8-0.8-13-0.8c-12,0-27.9-0.5-27.6,16.3l1.9,80.5l-0.3,0.8l-0.7-0.5
					c-7.1-17.4-8.4-17.7-46.1-85.9c-3.9-7-15.3-12.6-24.7-12.3l-26.3,1.1c-2.6,0-10.1,2.7-10.1,5.6l1.7,82.7
					c-2.8,0.8-5.5,2.4-7.6,4.7l-18.2,19.4c-1.1,1.2-3.1,0.1-2.8-1.5l6.8-30.2c0-0.2,0-0.4,0.1-0.6l11.1-55.1
					c1.5-7.5-3-12.9-11.2-13.7l0,0c-10.1-1.2-15.2,6.2-16.8,13.7l-10.2,50.8c-0.3,1.3-1.4,2.3-2.8,2.3h-0.5c-1.7,0-3-1.4-2.8-3.1
					l6.8-71.7c0.6-7.6-5.1-14.1-12.6-14.7s-14.1,5.1-14.7,12.6l-7,74.2c-0.1,1.6-1.6,2.8-3.2,2.6c-1.4-0.2-2.4-1.4-2.5-2.8
					l-1.6-59.1c-0.4-7.5-6.9-13.7-14.4-13.7l0,0c-7.6,0-13.4,6.2-13,13.7l1.5,60.4c0,0.8-0.2,1.7-0.7,2.4c-1.3,2-4.1,2.5-6,1
					l-0.4-0.3c-0.8-0.6-1.3-1.5-1.5-2.5l-7.3-40.1c-1.4-6-6.4-10.4-12.2-10.9l-0.7-10.9c0-0.3-0.7-3.5-0.7-4.3
					c-1.6-9.4-5.2-9.6-14.6-10.2c-6.5-0.5-35.7-0.8-42.2-0.8c-4.5-0.3-38.3,0-42.8,0c-4.9,0-15.9,0.3-17.9,4.3l1.3,21.7
					c0.7,7.5,1.9,11,10.7,12l18.8,1.3h5.2c4.2,0,22.1-0.5,26-0.5h0.7c1,0,4.5,0.3,5.5,0.5l-56.8,93.1c-4.2,5.1-9.1,11-9.7,17.9
					l0.6,22.5v1.1c0,4,0.3,10.4,5.2,11.8c87,2.9,98,1.3,102.2,1.6c3.9-0.5,8.8-1.9,8.4-6.4l-1.3-24.1c-0.7-9.1-11-9.9-18.5-9.9
					c-9.7,0-17.2,0.5-26.9,0.5h-11.7L263,421l5.2,25.6c3.5,15.2,5.3,30.8,5.3,46.5l0,0c0,28.6,23.2,51.8,51.8,51.8h18.4
					c19.1,0,33.5-13.2,44.8-25.9l29.6-33.9l1,47.4c0,4.5,0.3,9.1,5.2,11l13,1.3h1.9c8.1,0,14.6-0.5,22.1-2.4
					c2.6-0.5,7.8-3.5,7.8-5.9v-6.7c0-73-4.9-80-4.5-80.8c52.9,79.7,55.5,95,69.1,95.8c2.9,0.3,10.1,0,10.4,0c2.3,0,11-0.8,14.6-0.8
					c13.6-1.6,14-6.7,14.3-24.6c2.3-131.3,0-142.3,0-151.4C571.9,362.6,569.6,358,562.2,357.7z"/>
			</g>
			<g>
				<path class="st3" d="M668.6,357.7l-37.3,0.3c-13.3,0-39.6-2.4-42.8,5.9v6.2c0,20.3-1.3,40.9-1.3,61.5c0,30,1.6,84.5,1.9,95.5
					c0.6,9.6,4.5,16.3,17.5,16.3h77.6c8.4,0,19.8-2.4,19.8-11v-3.7c0-4.3,0.6-6.4,0.6-10.4c0-11.8-1-15.8-16.6-15.8
					c-8.4,0-39,0.5-48,0.5h-1.6c0-3.2-0.6-22.5-1-25.7v-8c4.5-0.3,9.1-0.5,13.6-0.5c2.9,0,31.8-0.3,34.7-0.3
					c16.9,0,18.8,0,18.8-11.5v-19.3c-0.6-5.9-2.6-6.4-10.1-6.4c-4.5,0-51.9,1.1-56.5,0.8c0-2.1-0.7-12.6-0.7-14.7
					c0-2.9,0.3-16,0.3-19c1.6,0,29.5-0.5,33.8-0.5h26.6c3.6-0.8,5.5-2.4,6.5-5.4l1.3-20.1C706.9,357.5,687.1,357.7,668.6,357.7z"/>
			</g>
		</g>
		<g>
			<g>
				<path class="st2" d="M67.9,370.6c-12.5,0-22.3-1.4-30.8-4.5C18.3,359.3,5.7,343.9,3.4,325c-0.2-1.6-0.3-3.3-0.3-5l0.3-24.1
					c0.1-6.6,2.3-24.9,22.4-36.2C9,243.3,0,221.1,0,195.3c0-26.9,11.2-50.3,31.6-65.8c16.2-12.4,37.9-19.7,64.5-21.8
					c1-0.1,2-0.1,3-0.1c32.7,0,46.2,0.9,55,1.9c24.2,0.9,36.7,14,42.1,21.9c8.4,12.3,9.4,25.6,9.4,35.9v0.8c0,8,0,19-6.4,30.4
					c-4.2,7.4-9.9,13.3-17.3,17.4c17.9,17.4,26.9,39.1,26.9,64.6c0,35.9-17.1,63.5-48.2,77.8c-22.4,10.3-48.3,11.6-68.4,11.6
					c-2.2,0-5.4,0.2-8.8,0.3C78.7,370.3,73.4,370.6,67.9,370.6z"/>
				<path class="st2" d="M67.9,370.6c-12.5,0-22.3-1.4-30.8-4.5C18.3,359.3,5.7,343.9,3.4,325c-0.2-1.6-0.3-3.3-0.3-5l0.3-24.1
					c0.1-6.6,2.3-24.9,22.4-36.2C9,243.3,0,221.1,0,195.3c0-26.9,11.2-50.3,31.6-65.8c16.2-12.4,37.9-19.7,64.5-21.8
					c1-0.1,2-0.1,3-0.1c32.7,0,46.2,0.9,55,1.9c24.2,0.9,36.7,14,42.1,21.9c8.4,12.3,9.4,25.6,9.4,35.9v0.8c0,8,0,19-6.4,30.4
					c-4.2,7.4-9.9,13.3-17.3,17.4c17.9,17.4,26.9,39.1,26.9,64.6c0,35.9-17.1,63.5-48.2,77.8c-22.4,10.3-48.3,11.6-68.4,11.6
					c-2.2,0-5.4,0.2-8.8,0.3C78.7,370.3,73.4,370.6,67.9,370.6z"/>
			</g>
			<g>
				<g>
					<path class="st2" d="M335.3,370.8c-2.2,0-2.9,0-14.4-0.5c-3,0-6.1,0.1-9.4,0.2c-4.1,0.1-8.3,0.3-12.9,0.3
						c-6.5,0-18.7,0-30.3-6.9c-5.8-3.4-10.6-7.9-14.3-13.5c-5.6,8.2-14.8,15.1-28.7,18.2c-5.9,1.3-12.6,1.9-21.1,1.9
						c-6.1,0-11.9-0.2-17.5-0.4c-5.1-0.2-10-0.4-14.6-0.4c-3.8,0-7.6-0.6-11.3-1.7c-13.6-4.2-29.4-17.5-29-40.8v-1.6
						c0-3.6,0.5-7.2,1.5-10.6L183,144.3c0.5-1.6,1-3.1,1.7-4.7c3.7-8.5,13.4-23.6,36.6-29.7c7.9-2.1,16.5-3,28-3
						c3.7,0,7.2,0.1,10.3,0.2c2.5,0.1,4.8,0.1,6.7,0.1c16.5,0,47.2,0,64.2,29.1l1.1,1.8c0.3,0.5,0.7,1.1,1,1.7
						c1,1.9,4.2,7.7,7.3,22.9l34.5,153.5c1.6,5.1,2.4,10.3,2.4,14.2C376.6,352.7,358.1,370.8,335.3,370.8z"/>
				</g>
				<g>
					<path class="st2" d="M335.3,370.8c-2.2,0-2.9,0-14.4-0.5c-3,0-6.1,0.1-9.4,0.2c-4.1,0.1-8.3,0.3-12.9,0.3
						c-6.5,0-18.7,0-30.3-6.9c-5.8-3.4-10.6-7.9-14.3-13.5c-5.6,8.2-14.8,15.1-28.7,18.2c-5.9,1.3-12.6,1.9-21.1,1.9
						c-6.1,0-11.9-0.2-17.5-0.4c-5.1-0.2-10-0.4-14.6-0.4c-3.8,0-7.6-0.6-11.3-1.7c-13.6-4.2-29.4-17.5-29-40.8v-1.6
						c0-3.6,0.5-7.2,1.5-10.6L183,144.3c0.5-1.6,1-3.1,1.7-4.7c3.7-8.5,13.4-23.6,36.6-29.7c7.9-2.1,16.5-3,28-3
						c3.7,0,7.2,0.1,10.3,0.2c2.5,0.1,4.8,0.1,6.7,0.1c16.5,0,47.2,0,64.2,29.1l1.1,1.8c0.3,0.5,0.7,1.1,1,1.7
						c1,1.9,4.2,7.7,7.3,22.9l34.5,153.5c1.6,5.1,2.4,10.3,2.4,14.2C376.6,352.7,358.1,370.8,335.3,370.8z"/>
				</g>
			</g>
			<g>
				<path class="st2" d="M369.1,371.6c-11.3,0-20.8-2-29.3-6c-16-7.7-26.4-22.3-28.6-40c-0.2-1.5-0.3-3-0.3-4.4l-0.7-170.9
					c0-5.2,1-10.3,3.1-15.1c10-23.5,35.1-26.4,43.3-27.3c8.1-0.9,18.3-1.4,33.2-1.4c8.4,0,16.4,0.2,24.1,0.4
					c7.2,0.2,14,0.4,20.6,0.4h1c0.5,0,1,0,1.5,0c11,0.4,33.9,1.3,49.2,17.5c6.3,6.6,9.9,15.3,10.3,24.3c0.1,0.5,0.2,1.2,0.3,1.7
					c0.8,3.8,2,9.6,2,16.4c0,14.4-4.3,26.8-12,36.4c4.8,7.4,7.5,16.1,7.5,25.4v0.6c0,0.7,0.1,2.5,0.2,3.8c0.2,3.8,0.5,8.6,0.5,12.7
					c0,3-0.3,5.5-0.4,6.9c-1.1,16-11.1,29.6-26.8,36.4c-5.5,2.4-12,4.1-19.8,5.2c-3.6,0.5-7.5,0.9-11.9,1.1l-0.1,12.8
					c0,0.1,0,0.3,0,0.4c0.1,1.4,0.3,3.4,0.3,5.9c0,28.8-14.1,42.6-26,49.2C397.6,371,384.1,371.6,369.1,371.6z"/>
				<path class="st2" d="M369.1,371.6c-11.3,0-20.8-2-29.3-6c-16-7.7-26.4-22.3-28.6-40c-0.2-1.5-0.3-3-0.3-4.4l-0.7-170.9
					c0-5.2,1-10.3,3.1-15.1c10-23.5,35.1-26.4,43.3-27.3c8.1-0.9,18.3-1.4,33.2-1.4c8.4,0,16.4,0.2,24.1,0.4
					c7.2,0.2,14,0.4,20.6,0.4h1c0.5,0,1,0,1.5,0c11,0.4,33.9,1.3,49.2,17.5c6.3,6.6,9.9,15.3,10.3,24.3c0.1,0.5,0.2,1.2,0.3,1.7
					c0.8,3.8,2,9.6,2,16.4c0,14.4-4.3,26.8-12,36.4c4.8,7.4,7.5,16.1,7.5,25.4v0.6c0,0.7,0.1,2.5,0.2,3.8c0.2,3.8,0.5,8.6,0.5,12.7
					c0,3-0.3,5.5-0.4,6.9c-1.1,16-11.1,29.6-26.8,36.4c-5.5,2.4-12,4.1-19.8,5.2c-3.6,0.5-7.5,0.9-11.9,1.1l-0.1,12.8
					c0,0.1,0,0.3,0,0.4c0.1,1.4,0.3,3.4,0.3,5.9c0,28.8-14.1,42.6-26,49.2C397.6,371,384.1,371.6,369.1,371.6z"/>
			</g>
			<g>
				<path class="st2" d="M490.1,370.5c-31.6,0-53.3-20.3-55.5-51.8c0-0.5-0.1-1-0.1-1.4v-0.6c-1.3-43.2-1.9-76.4-1.9-96
					c0-10.9,0.3-21.7,0.7-32.2c0.3-10.2,0.6-19.8,0.6-29.4V153c0-4.7,0.9-9.4,2.6-13.9c3.4-8.6,12.6-23.7,36.8-28.5
					c6.4-1.3,13.8-1.9,23.3-1.9c4.1,0,8,0.1,11.4,0.2c2.5,0.1,4.9,0.1,6.6,0.1l37.4-0.3h1.9c18.3,0,43.4,0,60.4,18.2
					c9.2,9.9,13.8,23,12.9,37l-1.3,20.1c-0.2,3.2-0.8,6.4-1.8,9.5c-1.2,3.5-2.7,6.8-4.5,9.8c3,5,5.4,11.4,6.2,19.3
					c0.2,1.4,0.2,2.8,0.2,4.2v19.3c0,4.8-0.2,10.6-1.9,16.8c-1.3,4.6-3.2,8.9-5.7,12.7c7.7,12.1,7.7,25.1,7.7,31.8
					c0,3.9-0.3,6.9-0.5,8.9c-0.1,1.1-0.1,1.3-0.1,1.5v3.7c0,19-11.4,35.8-29.8,43.6c-10.3,4.4-21,5.4-28.1,5.4H490.1z"/>
				<path class="st2" d="M490.1,370.5c-31.6,0-53.3-20.3-55.5-51.8c0-0.5-0.1-1-0.1-1.4v-0.6c-1.3-43.2-1.9-76.4-1.9-96
					c0-10.9,0.3-21.7,0.7-32.2c0.3-10.2,0.6-19.8,0.6-29.4V153c0-4.7,0.9-9.4,2.6-13.9c3.4-8.6,12.6-23.7,36.8-28.5
					c6.4-1.3,13.8-1.9,23.3-1.9c4.1,0,8,0.1,11.4,0.2c2.5,0.1,4.9,0.1,6.6,0.1l37.4-0.3h1.9c18.3,0,43.4,0,60.4,18.2
					c9.2,9.9,13.8,23,12.9,37l-1.3,20.1c-0.2,3.2-0.8,6.4-1.8,9.5c-1.2,3.5-2.7,6.8-4.5,9.8c3,5,5.4,11.4,6.2,19.3
					c0.2,1.4,0.2,2.8,0.2,4.2v19.3c0,4.8-0.2,10.6-1.9,16.8c-1.3,4.6-3.2,8.9-5.7,12.7c7.7,12.1,7.7,25.1,7.7,31.8
					c0,3.9-0.3,6.9-0.5,8.9c-0.1,1.1-0.1,1.3-0.1,1.5v3.7c0,19-11.4,35.8-29.8,43.6c-10.3,4.4-21,5.4-28.1,5.4H490.1z"/>
			</g>
			<g>
				<path class="st2" d="M325.3,588.7c-12.8,0-25-2.7-36.1-7.6c-5.5,3.2-12.1,5.5-19.8,6.6c-1.7,0.2-3.4,0.4-5.2,0.4
					c-0.5,0-1,0-1.5,0s-1.1,0-1.9,0c-3,0.1-8.1,0.2-16.7,0.2c-19.5,0-47.6-0.6-83.4-1.8c-3-0.1-5.9-0.5-8.8-1.3
					c-7.8-2.1-33.1-11.9-33.1-48.4v-0.5l-0.6-21.9c0-1.5,0-3.1,0.1-4.6c1.6-16.9,10.5-29.1,16.5-36.5l21.6-35.5
					c-12-2.5-21.5-8.3-28.4-17.2c-8.6-11.1-9.7-23.2-10.1-28.4c0-0.3-0.1-0.7-0.1-1l-1.3-21.7c-0.4-6.5,0.9-13,3.8-18.9
					c12.5-25.7,42.3-25.7,52.1-25.7c1,0,3.4,0,6.6,0c6.6,0,16.3-0.1,24.1-0.1c8,0,11.3,0.1,13.1,0.1c5.6,0,34.4,0.2,43.7,0.9
					c7.1,0.4,16.7,1,26.6,6.7c0.6,0.4,1.3,0.7,1.9,1.1c7.5-4.1,15.9-6.3,24.5-6.3c2.3,0,4.6,0.1,6.8,0.4
					c9.3-8.9,21.9-14.3,35.6-14.3c1.3,0,2.7,0.1,4,0.2c13.8,1.1,26.3,7.4,35.3,17.9c0.7,0.8,1.4,1.6,2,2.5
					c8.6-5.8,18.8-8.9,27.7-9.2l26-1.1c0.2,0,0.3,0,0.5,0c0.6,0,1.2,0,1.7,0c16.8,0,33.7,6.8,45.7,17.6
					c16.3-16.6,38.2-16.6,48.8-16.6h2.2c6.5,0,11.1,0.3,16.3,0.9c23,1.6,40.5,17.6,44.8,41.2c0.4,2.2,0.6,4.5,0.6,6.8
					c0,0.8,0.1,2.2,0.1,4.2c0.5,11.8,1.7,39.3-0.2,147.9c-0.2,11.9-0.4,23.1-6,34.5c-5.3,10.8-16.9,24.2-41.8,27.2
					c-1.4,0.2-2.9,0.3-4.3,0.3c-1.1,0-4.5,0.3-6.2,0.4c-3.5,0.2-5.8,0.4-7.8,0.4h-0.1c-1.2,0-4.1,0.1-7.1,0.1
					c-2.7,0-4.8-0.1-6.8-0.2c-18.5-1.3-29.9-11.3-35.6-17.5c-6.9,7.2-16.1,12.1-25.3,14.2c-12.2,3-22.4,3.4-30.8,3.4h-1.9
					c-1.3,0-2.6-0.1-3.9-0.2l-13-1.3c-3.3-0.3-6.6-1.1-9.8-2.3c-4.4-1.7-11.6-5.3-17.9-12.4c-12.5,8.8-28.9,16.3-49,16.3
					L325.3,588.7L325.3,588.7z"/>
				<path class="st2" d="M325.3,588.7c-12.8,0-25-2.7-36.1-7.6c-5.5,3.2-12.1,5.5-19.8,6.6c-1.7,0.2-3.4,0.4-5.2,0.4
					c-0.5,0-1,0-1.5,0s-1.1,0-1.9,0c-3,0.1-8.1,0.2-16.7,0.2c-19.5,0-47.6-0.6-83.4-1.8c-3-0.1-5.9-0.5-8.8-1.3
					c-7.8-2.1-33.1-11.9-33.1-48.4v-0.5l-0.6-21.9c0-1.5,0-3.1,0.1-4.6c1.6-16.9,10.5-29.1,16.5-36.5l21.6-35.5
					c-12-2.5-21.5-8.3-28.4-17.2c-8.6-11.1-9.7-23.2-10.1-28.4c0-0.3-0.1-0.7-0.1-1l-1.3-21.7c-0.4-6.5,0.9-13,3.8-18.9
					c12.5-25.7,42.3-25.7,52.1-25.7c1,0,3.4,0,6.6,0c6.6,0,16.3-0.1,24.1-0.1c8,0,11.3,0.1,13.1,0.1c5.6,0,34.4,0.2,43.7,0.9
					c7.1,0.4,16.7,1,26.6,6.7c0.6,0.4,1.3,0.7,1.9,1.1c7.5-4.1,15.9-6.3,24.5-6.3c2.3,0,4.6,0.1,6.8,0.4
					c9.3-8.9,21.9-14.3,35.6-14.3c1.3,0,2.7,0.1,4,0.2c13.8,1.1,26.3,7.4,35.3,17.9c0.7,0.8,1.4,1.6,2,2.5
					c8.6-5.8,18.8-8.9,27.7-9.2l26-1.1c0.2,0,0.3,0,0.5,0c0.6,0,1.2,0,1.7,0c16.8,0,33.7,6.8,45.7,17.6
					c16.3-16.6,38.2-16.6,48.8-16.6h2.2c6.5,0,11.1,0.3,16.3,0.9c23,1.6,40.5,17.6,44.8,41.2c0.4,2.2,0.6,4.5,0.6,6.8
					c0,0.8,0.1,2.2,0.1,4.2c0.5,11.8,1.7,39.3-0.2,147.9c-0.2,11.9-0.4,23.1-6,34.5c-5.3,10.8-16.9,24.2-41.8,27.2
					c-1.4,0.2-2.9,0.3-4.3,0.3c-1.1,0-4.5,0.3-6.2,0.4c-3.5,0.2-5.8,0.4-7.8,0.4h-0.1c-1.2,0-4.1,0.1-7.1,0.1
					c-2.7,0-4.8-0.1-6.8-0.2c-18.5-1.3-29.9-11.3-35.6-17.5c-6.9,7.2-16.1,12.1-25.3,14.2c-12.2,3-22.4,3.4-30.8,3.4h-1.9
					c-1.3,0-2.6-0.1-3.9-0.2l-13-1.3c-3.3-0.3-6.6-1.1-9.8-2.3c-4.4-1.7-11.6-5.3-17.9-12.4c-12.5,8.8-28.9,16.3-49,16.3
					L325.3,588.7L325.3,588.7z"/>
			</g>
			<g>
				<path class="st2" d="M606.6,587.3c-31.6,0-53.3-20.3-55.5-51.8c0-0.5-0.1-1-0.1-1.4v-0.4c-1.3-43.2-2-76.5-2-96.2
					c0-10.9,0.3-21.7,0.7-32.2c0.3-10.2,0.6-19.8,0.6-29.4v-6.2c0-4.7,0.9-9.4,2.6-13.9c3.4-8.6,12.6-23.7,36.8-28.5
					c6.4-1.3,13.8-1.9,23.3-1.9c4.1,0,8,0.1,11.4,0.2c2.5,0.1,4.9,0.1,6.6,0.1c0,0,37.4-0.3,37.5-0.3h1.9c18.3,0,43.4,0,60.4,18.2
					c9.2,9.9,13.8,23,12.9,37l-1.3,20.1c-0.2,3.2-0.8,6.4-1.8,9.5c-1.2,3.5-2.7,6.8-4.5,9.8c3,5,5.4,11.4,6.2,19.3
					c0.2,1.4,0.2,2.8,0.2,4.2v19.3c0,4.8-0.2,10.6-1.9,16.8c-1.3,4.6-3.2,8.9-5.7,12.7c7.7,12.1,7.7,25.1,7.7,31.8
					c0,3.9-0.3,6.9-0.5,8.9c-0.1,1.1-0.1,1.3-0.1,1.5v3.7c0,19-11.4,35.8-29.8,43.6c-10.3,4.4-21,5.4-28.1,5.4L606.6,587.3
					L606.6,587.3z"/>
				<path class="st2" d="M606.6,587.3c-31.6,0-53.3-20.3-55.5-51.8c0-0.5-0.1-1-0.1-1.4v-0.4c-1.3-43.2-2-76.5-2-96.2
					c0-10.9,0.3-21.7,0.7-32.2c0.3-10.2,0.6-19.8,0.6-29.4v-6.2c0-4.7,0.9-9.4,2.6-13.9c3.4-8.6,12.6-23.7,36.8-28.5
					c6.4-1.3,13.8-1.9,23.3-1.9c4.1,0,8,0.1,11.4,0.2c2.5,0.1,4.9,0.1,6.6,0.1c0,0,37.4-0.3,37.5-0.3h1.9c18.3,0,43.4,0,60.4,18.2
					c9.2,9.9,13.8,23,12.9,37l-1.3,20.1c-0.2,3.2-0.8,6.4-1.8,9.5c-1.2,3.5-2.7,6.8-4.5,9.8c3,5,5.4,11.4,6.2,19.3
					c0.2,1.4,0.2,2.8,0.2,4.2v19.3c0,4.8-0.2,10.6-1.9,16.8c-1.3,4.6-3.2,8.9-5.7,12.7c7.7,12.1,7.7,25.1,7.7,31.8
					c0,3.9-0.3,6.9-0.5,8.9c-0.1,1.1-0.1,1.3-0.1,1.5v3.7c0,19-11.4,35.8-29.8,43.6c-10.3,4.4-21,5.4-28.1,5.4L606.6,587.3
					L606.6,587.3z"/>
			</g>
		</g>
	</g>
	<path class="st2" d="M578.5,129H281.1V78.7c0-16,13-29.1,29.1-29.1h239.3c16,0,29.1,13,29.1,29.1L578.5,129L578.5,129z"/>
	<g>
		<path class="st2" d="M638.7,433.1c-11.5,0-22.7-5.2-30-14.7l-85-109.4c-1.1-1.4-2.1-2.9-3-4.5c-6.9-12-11.8-25.2-14.6-39.3
			c-11.1-55.1,12.9-112.6,59.6-143c18.1-11.8,38.5-18.8,59.5-20.4c-0.6-5.9,0-11.9,1.7-17.7l3.8-12.6c7.6-25.6,24.8-46.7,48.3-59.4
			C693.5,4.2,709.9,0,726.5,0c10.3,0,20.4,1.6,30.3,4.7c25.4,8.1,46.1,25.7,58.3,49.7c12,23.5,14.4,50.3,6.9,75.6l-8.7,29.3
			c15.2,12.5,27.5,28.6,35.7,47.2c22.6,50.9,11.3,112.2-28.1,152.5c-0.9,0.9-1.8,1.8-2.8,2.6c-9.2,8.8-19.5,16.3-30.7,22.1
			c-1.7,0.9-3.5,1.6-5.3,2.3L651,431C647,432.4,642.8,433.1,638.7,433.1z"/>
	</g>
	<g>
		<path class="st4" d="M667.1,76.5l-3.8,12.6c-1.3,4.4,1.2,9,5.6,10.3l14.6,4.3c4.4,1.3,9-1.2,10.3-5.6l2.7-9.1
			c2.4-8,7.8-14.3,14.6-18s15.1-4.8,23.1-2.4c16,4.8,24.9,22.6,20.1,38.6l-30.9,103.9l30.4,9.1l31.8-106.9
			c9.7-32.6-7.8-67.9-40.3-78.2c-16.8-5.3-34-3.2-48.3,4.6C683,47.2,671.9,60.1,667.1,76.5z"/>
		<path class="st5" d="M814.2,216c-11-25.1-31.4-42.1-54.9-49.1c-17.5-5.2-36.6-4.9-54.9,2.2c-11.7-15.8-27.6-26.7-45.1-31.9
			c-23.5-7-49.9-3.9-72.8,11.1c-34.5,22.5-50.9,64.6-43.1,103.6c1.9,9.7,5.3,19.1,10.3,27.9l85,109.4l131.1-45.1
			c8.8-4.6,16.7-10.5,23.5-17.3c0-0.2,0.4-0.2,0.4-0.2C821.4,298.1,830.9,253.8,814.2,216z"/>
		<path class="st6" d="M682.7,277.2l-0.2-5.6c5.8-1.4,10.8-5.6,12.6-11.8c2.7-9.1-2.5-18.7-11.6-21.4s-18.7,2.5-21.4,11.6
			c-1.8,6.1,0,12.5,4.1,16.8l-3.3,4.6l-18.4,25.7l19.7,5.9l19.7,5.9L682.7,277.2z"/>
	</g>
	<g>
		<g>
			<g>
				<g>
					<path class="st7" d="M57.5,285.5c0,0,4.5,0.5,11.4,0.5c16.2,0,51.6,0.3,51.6-13.6c0-35.3-82.4-17.7-82.4-82.9
						c0-31.6,24-46.8,61-49.8c35.1,0,46.1,1.1,52.3,1.9c14,0,16.2,7.5,16.2,19.8c0,11,0.3,16-12.3,17.9c-15.6,0-29.2-0.5-40.2-0.5
						c-19.5,0-24.7,1.9-24.7,13.9c0,4,1.6,9.1,13.6,14.4c45.8,20.3,66.9,35.3,66.9,67.4c0,46.8-43.2,51.4-78.6,51.4
						c-17.2,0-49,5.3-51-11.2l0.3-24.1c0-2.4,4.2-4.3,6.5-5.1L57.5,285.5L57.5,285.5z"/>
				</g>
			</g>
			<g>
				<g>
					<path class="st7" d="M169.8,321.3v-1.6L219.5,149c5.5-12.6,31.2-9.6,46.7-9.6c17.5,0,26.3,1.3,31.5,10.4l1.3,2.1
						c1.3,2.4,3.2,11.2,3.6,12.8l35.1,156c0.3,0.5,1,3.2,1,3.7c0,1.6-1.6,2.4-3.2,2.4c-1.3,0-1.6,0-13.6-0.5c-7.8,0-15.3,0.5-23,0.5
						c-10.7,0-13.6-1.1-15.3-9.6l-7.5-41.7c-0.3,0-1.3-4.3-1.9-4.5h-33.8c-1.3,0-4.5,0.5-4.9,1.9l-12,48.1c0,4.8-10.1,5.6-19.2,5.6
						c-10.7,0-21.4-0.8-32.1-0.8C169.5,325.1,169.8,323.5,169.8,321.3z M245.1,236.2l21.4-0.8c-2.6-12.3-5.8-34.2-8.8-49l-1-1.3
						l-1.6,2.9c-0.3,1.6-1.9,6.7-1.9,7.2L245.1,236.2z"/>
				</g>
			</g>
			<g>
				<g>
					<path class="st7" d="M348.3,144.2c1.9-4.5,18.2-5.6,41.5-5.6c15.6,0,30.2,0.8,44.8,0.8h1c6.8,0.3,18.5,0.8,23,5.6
						c0,4.8,2.3,10.7,2.3,16.3c0,10.2-4.2,19.3-22.7,19.3c-13.3,0-26.3-1.1-39-1.1l-2.3,0.3c0,0.3-0.6,14.7-0.6,17.9
						c0,1.6,1,12.8,1,14.7c5.5,0,29.5,0.3,35.1,0.3c9.4,0,24-0.3,24,10.4v0.8c0,2.7,0.6,11,0.6,16.3c0,1.9-0.3,3.5-0.3,4.3
						c-0.7,9.4-40.6,7.8-58.4,7.8l-0.3,50.8c0,2.1,0.3,4,0.3,5.9c0,17.4-7.1,18.7-29.2,18.7c-8.8,0-18.8-1.9-20.1-12.6L348.3,144.2z
						"/>
				</g>
			</g>
			<g>
				<g>
					<path class="st7" d="M470.7,214.8c0-20.6,1.3-41.2,1.3-61.5v-6.2c3.2-8.3,29.5-5.9,42.8-5.9l37.3-0.3
						c18.5,0,38.3-0.3,37.3,14.7l-1.3,20.1c-1,2.9-2.9,4.5-6.5,5.4H555c-4.2,0-32.1,0.5-33.8,0.5c0,2.9-0.3,16.1-0.3,19
						c0,2.1,0.7,12.6,0.7,14.7c4.5,0.3,51.9-0.8,56.5-0.8c7.5,0,9.4,0.5,10.1,6.4v19.3c0,11.5-1.9,11.5-18.8,11.5
						c-2.9,0-31.8,0.3-34.7,0.3c-4.5,0-9.1,0.3-13.6,0.5v8c0.3,3.2,1,22.5,1,25.7h1.6c9.1,0,39.6-0.5,48-0.5
						c15.6,0,16.6,4,16.6,15.8c0,4-0.6,6.2-0.6,10.4v3.7c0,8.6-11.4,11-19.8,11h-77.6c-13,0-16.9-6.7-17.5-16.3
						C472.3,299.4,470.7,244.8,470.7,214.8z"/>
				</g>
			</g>
		</g>
		<g>
			<g>
				<g>
					<path class="st8" d="M67.8,336.9c-7.7,0-27.8-0.1-29.5-14.6v-0.2l0.3-24.3c0-4,4.6-6.4,8.4-7.8l0.5-0.2h10.1h0.2
						c0,0,4.5,0.5,11,0.5h1.9c7.1,0,20.3,0,30.7-1.8c7.3-1.2,16.1-3.8,16.1-9c0-12.3-11.4-17.1-30-24c-23.4-8.6-52.5-19.3-52.5-59
						c0-31.1,22-49.4,63.7-52.7h0.1H99c33.2,0,45.2,0.9,52.4,1.9c17.5,0.1,19,11.8,19,22.7v0.8c0,10.3,0,17.8-14.8,20h-0.2h-0.2
						c-8.5,0-16.5-0.2-23.6-0.3c-6-0.1-11.6-0.2-16.6-0.2c-19.9,0-21.7,1.9-21.7,11c0,1.9,0,6.5,11.9,11.8
						c46.5,20.6,68.6,36.4,68.6,70.1c0,22-9.3,37.4-27.7,45.9c-16.2,7.4-37.2,8.4-53.8,8.4c-3.1,0-6.7,0.2-10.6,0.4
						C77.2,336.7,72.5,336.9,67.8,336.9C67.9,336.9,67.9,336.9,67.8,336.9z"/>
				</g>
				<g>
					<path class="st8" d="M67.8,336.9c-7.7,0-27.8-0.1-29.5-14.6v-0.2l0.3-24.3c0-4,4.6-6.4,8.4-7.8l0.5-0.2h10.1h0.2
						c0,0,4.5,0.5,11,0.5h1.9c7.1,0,20.3,0,30.7-1.8c7.3-1.2,16.1-3.8,16.1-9c0-12.3-11.4-17.1-30-24c-23.4-8.6-52.5-19.3-52.5-59
						c0-31.1,22-49.4,63.7-52.7h0.1H99c33.2,0,45.2,0.9,52.4,1.9c17.5,0.1,19,11.8,19,22.7v0.8c0,10.3,0,17.8-14.8,20h-0.2h-0.2
						c-8.5,0-16.5-0.2-23.6-0.3c-6-0.1-11.6-0.2-16.6-0.2c-19.9,0-21.7,1.9-21.7,11c0,1.9,0,6.5,11.9,11.8
						c46.5,20.6,68.6,36.4,68.6,70.1c0,22-9.3,37.4-27.7,45.9c-16.2,7.4-37.2,8.4-53.8,8.4c-3.1,0-6.7,0.2-10.6,0.4
						C77.2,336.7,72.5,336.9,67.8,336.9C67.9,336.9,67.9,336.9,67.8,336.9z"/>
				</g>
			</g>
			<g>
				<g>
					<path class="st8" d="M335.3,337.2c-1.4,0-1.7,0-13.7-0.5c-3.8,0-7.7,0.1-11.4,0.3c-3.8,0.1-7.7,0.3-11.6,0.3
						c-11,0-16.1-1.1-18.1-12l-7.4-41.2c-0.3-0.6-0.5-1.2-0.7-1.8c-0.1-0.2-0.2-0.5-0.3-0.8h-32c-0.6,0-1.6,0.2-2.2,0.4L226.1,329
						c-0.5,8.1-15,8.1-22.1,8.1c-5.4,0-10.9-0.2-16.2-0.4c-5.2-0.2-10.7-0.4-16-0.4h-0.4l-0.4-0.1c-4.4-1.4-4.4-4.9-4.3-6.7v-0.6v-2
						l49.8-171.3l0.1-0.2c4.5-10.3,18.9-11.7,32.4-11.7c3.2,0,6.3,0.1,9.4,0.2c2.7,0.1,5.3,0.1,7.6,0.1c16.4,0,27.7,0.8,34,11.9
						l1.3,2.1v0.1c1.7,3.1,3.8,13.5,3.9,13.6l35,155.6c0.6,1.4,1.1,3.9,1.1,4.7C341.5,334.9,338.9,337.2,335.3,337.2z M256.1,202.9
						l-7.4,37.6L263,240c-1.2-6-2.5-13.6-3.8-21.5c-0.9-5.5-1.9-11.2-2.8-16.4C256.3,202.4,256.2,202.7,256.1,202.9L256.1,202.9z"/>
				</g>
				<g>
					<path class="st8" d="M335.3,337.2c-1.4,0-1.7,0-13.7-0.5c-3.8,0-7.7,0.1-11.4,0.3c-3.8,0.1-7.7,0.3-11.6,0.3
						c-11,0-16.1-1.1-18.1-12l-7.4-41.2c-0.3-0.6-0.5-1.2-0.7-1.8c-0.1-0.2-0.2-0.5-0.3-0.8h-32c-0.6,0-1.6,0.2-2.2,0.4L226.1,329
						c-0.5,8.1-15,8.1-22.1,8.1c-5.4,0-10.9-0.2-16.2-0.4c-5.2-0.2-10.7-0.4-16-0.4h-0.4l-0.4-0.1c-4.4-1.4-4.4-4.9-4.3-6.7v-0.6v-2
						l49.8-171.3l0.1-0.2c4.5-10.3,18.9-11.7,32.4-11.7c3.2,0,6.3,0.1,9.4,0.2c2.7,0.1,5.3,0.1,7.6,0.1c16.4,0,27.7,0.8,34,11.9
						l1.3,2.1v0.1c1.7,3.1,3.8,13.5,3.9,13.6l35,155.6c0.6,1.4,1.1,3.9,1.1,4.7C341.5,334.9,338.9,337.2,335.3,337.2z M256.1,202.9
						l-7.4,37.6L263,240c-1.2-6-2.5-13.6-3.8-21.5c-0.9-5.5-1.9-11.2-2.8-16.4C256.3,202.4,256.2,202.7,256.1,202.9L256.1,202.9z"/>
				</g>
			</g>
			<g>
				<g>
					<path class="st8" d="M369.1,338c-14.1,0-21.8-5.1-23-15.1v-0.2L345.4,151l0.2-0.6c2.4-5.5,13.5-7.4,44.2-7.4
						c8,0,15.7,0.2,23.2,0.4c7.4,0.2,14.4,0.4,21.6,0.4h1.1c9.5,0.4,20,1.2,25.1,6.5l0.8,0.8v1.2c0,2,0.5,4.4,1,7
						c0.6,3,1.3,6.2,1.3,9.4c0,14.7-8.6,22.2-25.6,22.2c-6.8,0-13.6-0.3-20.1-0.5c-6.3-0.3-12.3-0.5-18.3-0.5
						c-0.2,4.2-0.5,12.9-0.5,15.3c0,0.7,0.2,4,0.4,6.7c0.2,2.1,0.3,3.8,0.4,5.1c3.6,0,9.3,0.1,14.8,0.1c7.3,0.1,14.8,0.1,17.5,0.1
						h1.4c8.9,0,25.6,0,25.6,13.4v0.8c0,1,0.1,3.1,0.2,5.5c0.2,3.4,0.4,7.7,0.4,10.9c0,1.3-0.1,2.5-0.2,3.3c0,0.4-0.1,0.8-0.1,1v0.1
						v0.1c-0.5,7.7-12.6,10.6-44.4,10.6c-3.5,0-6.9,0-9.9-0.1c-1.4,0-2.8,0-4.1,0l-0.3,47.9c0,1,0.1,1.9,0.2,2.9s0.2,2,0.2,3
						C401.2,337,390.2,338,369.1,338z"/>
				</g>
				<g>
					<path class="st8" d="M369.1,338c-14.1,0-21.8-5.1-23-15.1v-0.2L345.4,151l0.2-0.6c2.4-5.5,13.5-7.4,44.2-7.4
						c8,0,15.7,0.2,23.2,0.4c7.4,0.2,14.4,0.4,21.6,0.4h1.1c9.5,0.4,20,1.2,25.1,6.5l0.8,0.8v1.2c0,2,0.5,4.4,1,7
						c0.6,3,1.3,6.2,1.3,9.4c0,14.7-8.6,22.2-25.6,22.2c-6.8,0-13.6-0.3-20.1-0.5c-6.3-0.3-12.3-0.5-18.3-0.5
						c-0.2,4.2-0.5,12.9-0.5,15.3c0,0.7,0.2,4,0.4,6.7c0.2,2.1,0.3,3.8,0.4,5.1c3.6,0,9.3,0.1,14.8,0.1c7.3,0.1,14.8,0.1,17.5,0.1
						h1.4c8.9,0,25.6,0,25.6,13.4v0.8c0,1,0.1,3.1,0.2,5.5c0.2,3.4,0.4,7.7,0.4,10.9c0,1.3-0.1,2.5-0.2,3.3c0,0.4-0.1,0.8-0.1,1v0.1
						v0.1c-0.5,7.7-12.6,10.6-44.4,10.6c-3.5,0-6.9,0-9.9-0.1c-1.4,0-2.8,0-4.1,0l-0.3,47.9c0,1,0.1,1.9,0.2,2.9s0.2,2,0.2,3
						C401.2,337,390.2,338,369.1,338z"/>
				</g>
			</g>
			<g>
				<g>
					<path class="st8" d="M490.1,336.9c-12.9,0-19.6-6.2-20.4-19v-0.7c-1.6-54.1-1.9-81.5-1.9-95c0-10.4,0.3-20.9,0.7-31.1
						c0.3-10,0.6-20.4,0.6-30.5v-6.7l0.2-0.5c2.8-7.1,14.8-8.1,27.4-8.1c3.6,0,7.3,0.1,10.5,0.2c2.8,0.1,5.4,0.1,7.7,0.1l37.3-0.3
						h1.9c13.2,0,28.1,0,34.8,7.1c2.6,2.8,3.8,6.4,3.5,10.7l-1.3,20.4L591,184c-1.3,3.9-4,6.3-8.6,7.3l-0.3,0.1h-26.9
						c-2.6,0-14.4,0.2-23.1,0.4c-3.4,0.1-6,0.1-7.8,0.1c0,1.8-0.1,4.2-0.1,6.7c-0.1,3.9-0.2,8-0.2,9.4c0,1,0.2,4.3,0.3,7.2
						c0.1,1.7,0.2,3.3,0.2,4.6c0.1,0,0.1,0,0.2,0c7.2,0,25-0.3,38-0.6c7.8-0.1,14-0.3,15.5-0.3c8.1,0,12.1,0.9,13,9v0.2v19.4
						c0,14.4-5,14.4-21.8,14.4c-1.4,0-9.5,0.1-17.3,0.1c-8.2,0.1-15.9,0.1-17.4,0.1c-3.5,0-7.2,0.2-10.7,0.4v5.1
						c0.3,3.1,0.8,16.5,0.9,22.9c5,0,14.4-0.1,23.5-0.3c9.8-0.1,19.1-0.3,23.3-0.3c17.6,0,19.5,5.7,19.5,18.7c0,2.1-0.2,3.8-0.3,5.3
						c-0.2,1.6-0.3,3.1-0.3,5.1v3.7c0,10.2-11.7,13.9-22.7,13.9h-77.8V336.9z"/>
				</g>
				<g>
					<path class="st8" d="M490.1,336.9c-12.9,0-19.6-6.2-20.4-19v-0.7c-1.6-54.1-1.9-81.5-1.9-95c0-10.4,0.3-20.9,0.7-31.1
						c0.3-10,0.6-20.4,0.6-30.5v-6.7l0.2-0.5c2.8-7.1,14.8-8.1,27.4-8.1c3.6,0,7.3,0.1,10.5,0.2c2.8,0.1,5.4,0.1,7.7,0.1l37.3-0.3
						h1.9c13.2,0,28.1,0,34.8,7.1c2.6,2.8,3.8,6.4,3.5,10.7l-1.3,20.4L591,184c-1.3,3.9-4,6.3-8.6,7.3l-0.3,0.1h-26.9
						c-2.6,0-14.4,0.2-23.1,0.4c-3.4,0.1-6,0.1-7.8,0.1c0,1.8-0.1,4.2-0.1,6.7c-0.1,3.9-0.2,8-0.2,9.4c0,1,0.2,4.3,0.3,7.2
						c0.1,1.7,0.2,3.3,0.2,4.6c0.1,0,0.1,0,0.2,0c7.2,0,25-0.3,38-0.6c7.8-0.1,14-0.3,15.5-0.3c8.1,0,12.1,0.9,13,9v0.2v19.4
						c0,14.4-5,14.4-21.8,14.4c-1.4,0-9.5,0.1-17.3,0.1c-8.2,0.1-15.9,0.1-17.4,0.1c-3.5,0-7.2,0.2-10.7,0.4v5.1
						c0.3,3.1,0.8,16.5,0.9,22.9c5,0,14.4-0.1,23.5-0.3c9.8-0.1,19.1-0.3,23.3-0.3c17.6,0,19.5,5.7,19.5,18.7c0,2.1-0.2,3.8-0.3,5.3
						c-0.2,1.6-0.3,3.1-0.3,5.1v3.7c0,10.2-11.7,13.9-22.7,13.9h-77.8V336.9z"/>
				</g>
			</g>
		</g>
		<g>
			<g>
				<g>
					<path class="st7" d="M57.5,285.5c0,0,4.5,0.5,11.4,0.5c16.2,0,51.6,0.3,51.6-13.6c0-35.3-82.4-17.7-82.4-82.9
						c0-31.6,24-46.8,61-49.8c35.1,0,46.1,1.1,52.3,1.9c14,0,16.2,7.5,16.2,19.8c0,11,0.3,16-12.3,17.9c-15.6,0-29.2-0.5-40.2-0.5
						c-19.5,0-24.7,1.9-24.7,13.9c0,4,1.6,9.1,13.6,14.4c45.8,20.3,66.9,35.3,66.9,67.4c0,46.8-43.2,51.4-78.6,51.4
						c-17.2,0-49,5.3-51-11.2l0.3-24.1c0-2.4,4.2-4.3,6.5-5.1L57.5,285.5L57.5,285.5z"/>
				</g>
				<g>
					<path class="st7" d="M57.5,285.5c0,0,4.5,0.5,11.4,0.5c16.2,0,51.6,0.3,51.6-13.6c0-35.3-82.4-17.7-82.4-82.9
						c0-31.6,24-46.8,61-49.8c35.1,0,46.1,1.1,52.3,1.9c14,0,16.2,7.5,16.2,19.8c0,11,0.3,16-12.3,17.9c-15.6,0-29.2-0.5-40.2-0.5
						c-19.5,0-24.7,1.9-24.7,13.9c0,4,1.6,9.1,13.6,14.4c45.8,20.3,66.9,35.3,66.9,67.4c0,46.8-43.2,51.4-78.6,51.4
						c-17.2,0-49,5.3-51-11.2l0.3-24.1c0-2.4,4.2-4.3,6.5-5.1L57.5,285.5L57.5,285.5z"/>
				</g>
			</g>
			<g>
				<g>
					<path class="st7" d="M169.8,321.3v-1.6L219.5,149c5.5-12.6,31.2-9.6,46.7-9.6c17.5,0,26.3,1.3,31.5,10.4l1.3,2.1
						c1.3,2.4,3.2,11.2,3.6,12.8l35.1,156c0.3,0.5,1,3.2,1,3.7c0,1.6-1.6,2.4-3.2,2.4c-1.3,0-1.6,0-13.6-0.5c-7.8,0-15.3,0.5-23,0.5
						c-10.7,0-13.6-1.1-15.3-9.6l-7.5-41.7c-0.3,0-1.3-4.3-1.9-4.5h-33.8c-1.3,0-4.5,0.5-4.9,1.9l-12,48.1c0,4.8-10.1,5.6-19.2,5.6
						c-10.7,0-21.4-0.8-32.1-0.8C169.5,325.1,169.8,323.5,169.8,321.3z M245.1,236.2l21.4-0.8c-2.6-12.3-5.8-34.2-8.8-49l-1-1.3
						l-1.6,2.9c-0.3,1.6-1.9,6.7-1.9,7.2L245.1,236.2z"/>
				</g>
				<g>
					<path class="st7" d="M169.8,321.3v-1.6L219.5,149c5.5-12.6,31.2-9.6,46.7-9.6c17.5,0,26.3,1.3,31.5,10.4l1.3,2.1
						c1.3,2.4,3.2,11.2,3.6,12.8l35.1,156c0.3,0.5,1,3.2,1,3.7c0,1.6-1.6,2.4-3.2,2.4c-1.3,0-1.6,0-13.6-0.5c-7.8,0-15.3,0.5-23,0.5
						c-10.7,0-13.6-1.1-15.3-9.6l-7.5-41.7c-0.3,0-1.3-4.3-1.9-4.5h-33.8c-1.3,0-4.5,0.5-4.9,1.9l-12,48.1c0,4.8-10.1,5.6-19.2,5.6
						c-10.7,0-21.4-0.8-32.1-0.8C169.5,325.1,169.8,323.5,169.8,321.3z M245.1,236.2l21.4-0.8c-2.6-12.3-5.8-34.2-8.8-49l-1-1.3
						l-1.6,2.9c-0.3,1.6-1.9,6.7-1.9,7.2L245.1,236.2z"/>
				</g>
			</g>
			<g>
				<g>
					<path class="st7" d="M348.3,144.2c1.9-4.5,18.2-5.6,41.5-5.6c15.6,0,30.2,0.8,44.8,0.8h1c6.8,0.3,18.5,0.8,23,5.6
						c0,4.8,2.3,10.7,2.3,16.3c0,10.2-4.2,19.3-22.7,19.3c-13.3,0-26.3-1.1-39-1.1l-2.3,0.3c0,0.3-0.6,14.7-0.6,17.9
						c0,1.6,1,12.8,1,14.7c5.5,0,29.5,0.3,35.1,0.3c9.4,0,24-0.3,24,10.4v0.8c0,2.7,0.6,11,0.6,16.3c0,1.9-0.3,3.5-0.3,4.3
						c-0.7,9.4-40.6,7.8-58.4,7.8l-0.3,50.8c0,2.1,0.3,4,0.3,5.9c0,17.4-7.1,18.7-29.2,18.7c-8.8,0-18.8-1.9-20.1-12.6L348.3,144.2z
						"/>
				</g>
				<g>
					<path class="st7" d="M348.3,144.2c1.9-4.5,18.2-5.6,41.5-5.6c15.6,0,30.2,0.8,44.8,0.8h1c6.8,0.3,18.5,0.8,23,5.6
						c0,4.8,2.3,10.7,2.3,16.3c0,10.2-4.2,19.3-22.7,19.3c-13.3,0-26.3-1.1-39-1.1l-2.3,0.3c0,0.3-0.6,14.7-0.6,17.9
						c0,1.6,1,12.8,1,14.7c5.5,0,29.5,0.3,35.1,0.3c9.4,0,24-0.3,24,10.4v0.8c0,2.7,0.6,11,0.6,16.3c0,1.9-0.3,3.5-0.3,4.3
						c-0.7,9.4-40.6,7.8-58.4,7.8l-0.3,50.8c0,2.1,0.3,4,0.3,5.9c0,17.4-7.1,18.7-29.2,18.7c-8.8,0-18.8-1.9-20.1-12.6L348.3,144.2z
						"/>
				</g>
			</g>
			<g>
				<g>
					<path class="st7" d="M470.7,214.8c0-20.6,1.3-41.2,1.3-61.5v-6.2c3.2-8.3,29.5-5.9,42.8-5.9l37.3-0.3
						c18.5,0,38.3-0.3,37.3,14.7l-1.3,20.1c-1,2.9-2.9,4.5-6.5,5.4H555c-4.2,0-32.1,0.5-33.8,0.5c0,2.9-0.3,16.1-0.3,19
						c0,2.1,0.7,12.6,0.7,14.7c4.5,0.3,51.9-0.8,56.5-0.8c7.5,0,9.4,0.5,10.1,6.4v19.3c0,11.5-1.9,11.5-18.8,11.5
						c-2.9,0-31.8,0.3-34.7,0.3c-4.5,0-9.1,0.3-13.6,0.5v8c0.3,3.2,1,22.5,1,25.7h1.6c9.1,0,39.6-0.5,48-0.5
						c15.6,0,16.6,4,16.6,15.8c0,4-0.6,6.2-0.6,10.4v3.7c0,8.6-11.4,11-19.8,11h-77.6c-13,0-16.9-6.7-17.5-16.3
						C472.3,299.4,470.7,244.8,470.7,214.8z"/>
				</g>
				<g>
					<path class="st7" d="M470.7,214.8c0-20.6,1.3-41.2,1.3-61.5v-6.2c3.2-8.3,29.5-5.9,42.8-5.9l37.3-0.3
						c18.5,0,38.3-0.3,37.3,14.7l-1.3,20.1c-1,2.9-2.9,4.5-6.5,5.4H555c-4.2,0-32.1,0.5-33.8,0.5c0,2.9-0.3,16.1-0.3,19
						c0,2.1,0.7,12.6,0.7,14.7c4.5,0.3,51.9-0.8,56.5-0.8c7.5,0,9.4,0.5,10.1,6.4v19.3c0,11.5-1.9,11.5-18.8,11.5
						c-2.9,0-31.8,0.3-34.7,0.3c-4.5,0-9.1,0.3-13.6,0.5v8c0.3,3.2,1,22.5,1,25.7h1.6c9.1,0,39.6-0.5,48-0.5
						c15.6,0,16.6,4,16.6,15.8c0,4-0.6,6.2-0.6,10.4v3.7c0,8.6-11.4,11-19.8,11h-77.6c-13,0-16.9-6.7-17.5-16.3
						C472.3,299.4,470.7,244.8,470.7,214.8z"/>
				</g>
			</g>
		</g>
	</g>
	<g>
		<g>
			<path class="st9" d="M156.8,530.8v-1.1l-0.6-22.5c0.6-7,5.5-12.8,9.7-17.9l56.8-93.1c-1-0.3-4.5-0.5-5.5-0.5h-0.7
				c-3.9,0-21.7,0.5-26,0.5h-5.2l-18.8-1.3c-8.8-1.1-10.1-4.5-10.7-12l-1.3-21.7c1.9-4,13-4.3,17.9-4.3c4.5,0,38.3-0.3,42.8,0
				c6.5,0,35.7,0.3,42.2,0.8c9.4,0.5,13,0.8,14.6,10.2c0,0.8,0.7,4,0.7,4.3l1.3,21.1c-0.3,5.3-2.3,12.6-4.9,17.4l-54.9,93.6h11.7
				c9.7,0,17.2-0.5,26.9-0.5c7.5,0,17.9,0.8,18.5,9.9l1.3,24.1c0.3,4.5-4.5,5.9-8.4,6.4c-4.2-0.3-15.3,1.3-102.2-1.6
				C157.1,541.3,156.8,534.8,156.8,530.8z"/>
			<path class="st9" d="M419,532.4l-3.6-169.9c0-2.9,7.5-5.6,10.1-5.6l26.3-1.1c9.4-0.3,20.8,5.4,24.7,12.3
				c37.7,68.2,39,68.5,46.1,85.9l0.7,0.5l0.3-0.8l-1.9-80.5c-0.3-16.9,15.6-16.3,27.6-16.3c5.2,0,8.4,0.3,13,0.8
				c7.5,0.3,9.7,4.8,10.7,10.2c0,9.1,2.3,20.1,0,151.4c-0.3,17.9-0.6,23-14.3,24.6c-3.6,0-12.3,0.8-14.6,0.8c-0.3,0-7.5,0.3-10.4,0
				c-13.6-0.8-16.2-16-69.1-95.8c-0.3,0.8,4.5,7.8,4.5,80.8v6.7c0,2.4-5.2,5.3-7.8,5.9c-7.5,1.9-14,2.4-22.1,2.4h-1.9l-13-1.3
				C419.3,541.5,419,537,419,532.4z"/>
			<path class="st9" d="M587.2,431.6c0-20.6,1.3-41.2,1.3-61.5v-6.2c3.2-8.3,29.5-5.9,42.8-5.9l37.3-0.3c18.5,0,38.3-0.3,37.3,14.7
				l-1.3,20.1c-1,2.9-2.9,4.5-6.5,5.4h-26.6c-4.2,0-32.1,0.5-33.8,0.5c0,2.9-0.3,16.1-0.3,19c0,2.1,0.7,12.6,0.7,14.7
				c4.5,0.3,51.9-0.8,56.5-0.8c7.5,0,9.4,0.5,10.1,6.4V457c0,11.5-1.9,11.5-18.8,11.5c-2.9,0-31.8,0.3-34.7,0.3
				c-4.5,0-9.1,0.3-13.6,0.5v8c0.3,3.2,1,22.5,1,25.7h1.6c9.1,0,39.6-0.5,48-0.5c15.6,0,16.6,4,16.6,15.8c0,4-0.6,6.2-0.6,10.4v3.7
				c0,8.6-11.4,11-19.8,11h-77.6c-13,0-16.9-6.7-17.5-16.3C588.8,516.1,587.2,461.5,587.2,431.6z"/>
		</g>
		<g>
			<path class="st10" d="M244.1,554.6c-19.1,0-46.8-0.6-82.2-1.8h-0.3l-0.3-0.1c-7.3-2-7.3-11.2-7.3-14.6V537l-0.7-22.6v-0.2
				c0.7-7.8,6-14.2,10.3-19.4l54.3-89c-0.3,0-0.5,0-0.6,0h-0.7c-1.9,0-7.3,0.1-12.5,0.3c-5.6,0.1-11.3,0.3-13.5,0.3h-5.3l-19-1.4
				h-0.1c-11.2-1.4-12.6-7.2-13.3-14.7l-1.3-22.5l0.3-0.7c2-4,8.5-5.9,20.5-5.9c1,0,3.5,0,6.8,0c6.5,0,16.2-0.1,23.9-0.1
				c6.7,0,10.7,0,12.2,0.1c6.6,0,35.7,0.3,42.4,0.8c9.1,0.5,15.2,0.9,17.2,12.6v0.2v0.3c0,0.4,0.3,1.9,0.4,2.6
				c0.2,0.9,0.2,1.3,0.2,1.6l1.3,21.3v0.2c-0.4,5.9-2.5,13.6-5.2,18.6l-52.3,89.3h6.6c4.8,0,9.2-0.1,13.4-0.3
				c4.3-0.1,8.6-0.3,13.6-0.3c5.6,0,20.5,0,21.4,12.6l1.3,24.1c0.3,3.6-1.4,8.2-11,9.5h-0.3H264c-0.3,0-0.6,0-1.1,0
				c-0.7,0-1.7,0-3,0.1C257.1,554.5,252.3,554.6,244.1,554.6z"/>
			<path class="st10" d="M537.5,555.1c-1.9,0-3.2,0-4.2-0.1c-10.4-0.6-15-8.1-32.2-35.9c-7.6-12.2-17.5-28.3-31.6-49.8
				c2,18,2.4,45.5,2.4,67.8v6.7c0,4.6-7.1,8.1-10.1,8.7c-7,1.8-13.6,2.5-22.7,2.5H437l-13.5-1.4l-0.4-0.1c-7.1-2.7-7.1-9.9-7.1-13.7
				L412.4,370c0-5.5,9.6-8.6,12.9-8.6l26.2-1.1c0.3,0,0.5,0,0.8,0c10.4,0,22.3,6.2,26.6,13.8c11.6,21,19.7,35.5,25.6,46.1
				c8.6,15.4,12.6,22.5,15.6,28.8l-1.7-68.4c-0.1-5.6,1.4-10.1,4.5-13.2c5.5-5.6,14.4-6.1,23.8-6.1h2.2c5.3,0,8.6,0.3,13.2,0.8
				c11.2,0.5,12.8,9.6,13.4,12.6v0.3v0.3c0,1.6,0.1,3.2,0.2,5.7c0.5,11.4,1.7,38.2-0.2,145.7c-0.3,17.5-0.5,25.5-16.9,27.5h-0.2
				h-0.2c-1.9,0-5.4,0.2-8.6,0.5c-2.6,0.2-4.9,0.3-6,0.3h-0.4C542.5,555,539.9,555.1,537.5,555.1z"/>
			<path class="st10" d="M606.6,553.6c-12.9,0-19.6-6.2-20.4-19v-0.5c-1.3-42.9-1.9-75.8-1.9-95.2c0-10.4,0.3-20.9,0.7-31.1
				c0.3-10,0.6-20.4,0.6-30.5v-6.7l0.2-0.5c2.8-7.1,14.8-8.1,27.4-8.1c3.6,0,7.3,0.1,10.5,0.2c2.8,0.1,5.4,0.1,7.7,0.1l37.3-0.3h1.9
				c13.2,0,28.2,0,34.8,7.1c2.6,2.8,3.8,6.4,3.5,10.7l-1.3,20.4l-0.1,0.4c-1.3,3.9-4,6.3-8.6,7.3l-0.3,0.1h-26.9
				c-2.6,0-14.4,0.2-23.1,0.4c-3.4,0.1-6,0.1-7.8,0.1c0,1.8-0.1,4.2-0.1,6.7c-0.1,3.9-0.2,8-0.2,9.4c0,1,0.2,4.3,0.3,7.2
				c0.1,1.7,0.2,3.3,0.2,4.6c0.1,0,0.1,0,0.2,0c7.2,0,25-0.3,38-0.6c7.8-0.1,14-0.3,15.5-0.3c8.1,0,12.1,0.9,13,9v0.2v19.4
				c0,14.4-5,14.4-21.8,14.4c-1.4,0-9.5,0.1-17.3,0.1c-8.2,0.1-15.9,0.1-17.4,0.1c-3.6,0-7.2,0.2-10.7,0.4v5.1
				c0.3,3.1,0.8,16.5,0.9,22.9c5,0,14.4-0.1,23.5-0.3c9.8-0.1,19.1-0.3,23.3-0.3c17.6,0,19.5,5.7,19.5,18.7c0,2.1-0.2,3.8-0.3,5.3
				c-0.2,1.6-0.3,3.1-0.3,5.1v3.7c0,10.2-11.7,13.9-22.7,13.9h-77.8V553.6z"/>
		</g>
		<g>
			<path class="st9" d="M156.8,530.8v-1.1l-0.6-22.5c0.6-7,5.5-12.8,9.7-17.9l56.8-93.1c-1-0.3-4.5-0.5-5.5-0.5h-0.7
				c-3.9,0-21.7,0.5-26,0.5h-5.2l-18.8-1.3c-8.8-1.1-10.1-4.5-10.7-12l-1.3-21.7c1.9-4,13-4.3,17.9-4.3c4.5,0,38.3-0.3,42.8,0
				c6.5,0,35.7,0.3,42.2,0.8c9.4,0.5,13,0.8,14.6,10.2c0,0.8,0.7,4,0.7,4.3l1.3,21.1c-0.3,5.3-2.3,12.6-4.9,17.4l-54.9,93.6h11.7
				c9.7,0,17.2-0.5,26.9-0.5c7.5,0,17.9,0.8,18.5,9.9l1.3,24.1c0.3,4.5-4.5,5.9-8.4,6.4c-4.2-0.3-15.3,1.3-102.2-1.6
				C157.1,541.3,156.8,534.8,156.8,530.8z"/>
			<path class="st9" d="M419,532.4l-3.6-169.9c0-2.9,7.5-5.6,10.1-5.6l26.3-1.1c9.4-0.3,20.8,5.4,24.7,12.3
				c37.7,68.2,39,68.5,46.1,85.9l0.7,0.5l0.3-0.8l-1.9-80.5c-0.3-16.9,15.6-16.3,27.6-16.3c5.2,0,8.4,0.3,13,0.8
				c7.5,0.3,9.7,4.8,10.7,10.2c0,9.1,2.3,20.1,0,151.4c-0.3,17.9-0.6,23-14.3,24.6c-3.6,0-12.3,0.8-14.6,0.8c-0.3,0-7.5,0.3-10.4,0
				c-13.6-0.8-16.2-16-69.1-95.8c-0.3,0.8,4.5,7.8,4.5,80.8v6.7c0,2.4-5.2,5.3-7.8,5.9c-7.5,1.9-14,2.4-22.1,2.4h-1.9l-13-1.3
				C419.3,541.5,419,537,419,532.4z"/>
			<path class="st9" d="M587.2,431.6c0-20.6,1.3-41.2,1.3-61.5v-6.2c3.2-8.3,29.5-5.9,42.8-5.9l37.3-0.3c18.5,0,38.3-0.3,37.3,14.7
				l-1.3,20.1c-1,2.9-2.9,4.5-6.5,5.4h-26.6c-4.2,0-32.1,0.5-33.8,0.5c0,2.9-0.3,16.1-0.3,19c0,2.1,0.7,12.6,0.7,14.7
				c4.5,0.3,51.9-0.8,56.5-0.8c7.5,0,9.4,0.5,10.1,6.4V457c0,11.5-1.9,11.5-18.8,11.5c-2.9,0-31.8,0.3-34.7,0.3
				c-4.5,0-9.1,0.3-13.6,0.5v8c0.3,3.2,1,22.5,1,25.7h1.6c9.1,0,39.6-0.5,48-0.5c15.6,0,16.6,4,16.6,15.8c0,4-0.6,6.2-0.6,10.4v3.7
				c0,8.6-11.4,11-19.8,11h-77.6c-13,0-16.9-6.7-17.5-16.3C588.8,516.1,587.2,461.5,587.2,431.6z"/>
		</g>
	</g>
	<g>
		<path class="st4" d="M300.8,441c0.5-0.7,0.7-1.5,0.7-2.4l-1.5-60.4c-0.4-7.5,5.5-13.7,13-13.7l0,0c7.6,0,14,6.2,14.4,13.7
			l1.6,59.1c0.1,1.4,1.1,2.7,2.5,2.8c1.6,0.2,3.1-1,3.2-2.6l7-74.2c0.6-7.6,7.2-13.2,14.7-12.6l0,0c7.6,0.6,13.2,7.2,12.6,14.7
			l-6.8,71.7c-0.1,1.7,1.2,3.1,2.8,3.1h0.5c1.4,0,2.5-1,2.8-2.3l10.2-50.8c1.5-7.5,6.7-14.9,16.8-13.7l0,0
			c8.2,0.8,12.7,6.2,11.2,13.7l-11.1,55.1c0,0.2-0.1,0.4-0.1,0.6l-6.8,30.2c-0.4,1.6,1.6,2.7,2.8,1.5l18.2-19.4
			c5.2-6,14.2-7.1,20.4-2.2c6.6,5.2,7.5,14.9,2,21.2l-43.6,50C377,536.7,362.6,550,343.5,550h-18.4c-28.6,0-51.8-23.2-51.8-51.8l0,0
			c0-15.6-1.8-31.2-5.3-46.5l-9.4-46.8c-1.8-7.6,3.2-15.2,10.9-16.6c7.3-1.3,14.2,3.6,15.9,10.8l7.3,40.1c0.2,1,0.7,1.9,1.5,2.5
			l0.4,0.3C296.7,443.4,299.5,443,300.8,441L300.8,441z"/>
		<g>
			<g>
				<path class="st11" d="M347,466.2c-0.4,0.4-0.8,0.7-1.2,1c0.4-0.3,0,0-0.2,0.1c-0.3,0.2-0.5,0.4-0.8,0.6
					c-1.1,0.7-2.2,1.3-3.3,1.9c-0.6,0.3-1.2,0.6-1.9,0.9c0.4-0.2-0.3,0.1-0.4,0.2c-0.4,0.2-0.8,0.3-1.2,0.5c-1.4,0.5-2.8,1-4.3,1.5
					c-3,0.9-6.1,1.7-9.2,2.3c-1.5,0.3-3.1,0.6-4.6,0.8c-0.7,0.1-1.5,0.2-2.2,0.3c-0.7,0.1-0.8,0.1-1.7,0.2c-2.8,0.3-5.6,0.6-8.4,0.5
					c-3.9,0-3.9,6,0,6c5.8,0,11.7-0.8,17.4-1.9c6.4-1.2,12.8-3,18.7-5.7c2.7-1.2,5.3-2.8,7.5-4.9C354,467.7,349.8,463.5,347,466.2
					L347,466.2z"/>
			</g>
		</g>
		<g>
			<g>
				<path class="st11" d="M353.2,480.5c-12.3,7.4-21.4,19.9-24.6,33.9c-0.4,1.6,0.5,3.2,2.1,3.7c1.5,0.4,3.3-0.5,3.7-2.1
					c2.8-12.6,10.7-23.7,21.8-30.4C359.6,483.7,356.6,478.5,353.2,480.5L353.2,480.5z"/>
			</g>
		</g>
	</g>
	<g>
		<path class="st12" d="M350.7,108.9c0,1.2-0.4,2.2-1.3,3.1c-0.9,0.8-1.9,1.3-3.1,1.3s-2.3-0.4-3.1-1.3c-0.9-0.8-1.3-1.9-1.3-3.1
			V86.2c0-0.2-0.1-0.3-0.3-0.4c-0.2,0-0.3,0-0.4,0.3l-10,24.3c-1,1.9-2.5,2.9-4.4,2.9s-3.4-1-4.4-2.9l-10.1-24.3
			c-0.1-0.2-0.2-0.2-0.4-0.2s-0.3,0.2-0.3,0.4V109c0,1.2-0.4,2.2-1.3,3.1c-0.9,0.8-1.9,1.3-3.1,1.3s-2.3-0.4-3.1-1.3
			c-0.9-0.8-1.3-1.9-1.3-3.1V74.6c0-1.7,0.6-3.1,1.8-4.3c1.2-1.2,2.6-1.8,4.3-1.8c2.3,0,4,1.1,5.2,3.4l12.4,29
			c0.2,0.3,0.4,0.3,0.6,0l12.4-29c1.2-2.3,2.9-3.4,5.2-3.4c1.6,0,3,0.6,4.2,1.7c1.2,1.2,1.8,2.6,1.8,4.2L350.7,108.9L350.7,108.9z"
			/>
		<path class="st12" d="M368.2,108.8c0,1.2-0.4,2.3-1.3,3.1c-0.9,0.9-1.9,1.3-3.1,1.3s-2.3-0.4-3.1-1.3c-0.9-0.9-1.3-1.9-1.3-3.1
			V72.9c0-1.2,0.4-2.2,1.3-3.1c0.9-0.8,1.9-1.3,3.1-1.3s2.3,0.4,3.1,1.3c0.9,0.8,1.3,1.9,1.3,3.1V108.8z"/>
		<path class="st12" d="M377.8,107.2L377.8,107.2c-1-1.6-1.1-3.2-0.2-4.7s2.2-2.3,3.9-2.3h0.1c0.8,0,1.6,0.2,2.4,0.6
			c0.7,0.4,1.3,1,1.7,1.8c0.3,0.7,0.8,1.3,1.4,1.9c1.1,1,2.7,1.6,4.7,1.6c2.1,0,3.7-0.5,4.8-1.5c1.2-1,1.8-2.2,1.8-3.8
			c0-1.3-0.4-2.4-1.2-3.2c-0.8-0.8-1.8-1.5-3-2s-2.9-1-5-1.6c-2.9-0.8-5.2-1.7-6.9-2.5c-1.8-0.8-3.3-2-4.6-3.7
			c-1.3-1.6-1.9-3.8-1.9-6.6c0-2.6,0.6-4.9,1.9-6.8s3.1-3.4,5.5-4.5c2.3-1,5-1.5,8-1.5c4.5,0,8.2,1.1,11.1,3.3
			c0.7,0.6,1.4,1.2,1.9,1.9c1.1,1.6,1.3,3.2,0.5,4.9c-0.8,1.7-2.2,2.5-4.1,2.5h-0.1c-1.6,0-2.9-0.7-3.8-2.2
			c-0.3-0.6-0.8-1.1-1.3-1.6c-1.2-1-2.8-1.4-4.8-1.4c-1.7,0-3.1,0.4-4.1,1.3s-1.6,2.2-1.6,3.8c0,1.2,0.4,2.1,1.2,2.9
			c0.8,0.8,1.7,1.4,2.9,1.9c1.1,0.5,2.7,1.1,4.8,1.7c2.9,0.8,5.2,1.7,7,2.5s3.4,2.1,4.7,3.8c1.3,1.7,1.9,3.9,1.9,6.6
			c0,2.3-0.6,4.5-1.8,6.5c-1.2,2-3,3.6-5.3,4.8c-2.3,1.2-5.1,1.8-8.4,1.8c-3.1,0-5.8-0.5-8.2-1.6
			C381.2,110.7,379.2,109.1,377.8,107.2z"/>
		<path class="st12" d="M416,107.2L416,107.2c-1-1.6-1.1-3.2-0.2-4.7s2.2-2.3,3.9-2.3h0.1c0.8,0,1.6,0.2,2.4,0.6
			c0.7,0.4,1.3,1,1.7,1.8c0.3,0.7,0.8,1.3,1.4,1.9c1.1,1,2.7,1.6,4.7,1.6c2.1,0,3.7-0.5,4.8-1.5c1.2-1,1.8-2.2,1.8-3.8
			c0-1.3-0.4-2.4-1.2-3.2c-0.8-0.8-1.8-1.5-3-2s-2.9-1-5-1.6c-2.9-0.8-5.2-1.7-6.9-2.5c-1.8-0.8-3.3-2-4.6-3.7
			c-1.3-1.6-1.9-3.8-1.9-6.6c0-2.6,0.6-4.9,1.9-6.8s3.1-3.4,5.5-4.5c2.3-1,5-1.5,8-1.5c4.5,0,8.2,1.1,11.1,3.3
			c0.7,0.6,1.4,1.2,1.9,1.9c1.1,1.6,1.3,3.2,0.5,4.9c-0.8,1.7-2.2,2.5-4.1,2.5h-0.1c-1.6,0-2.9-0.7-3.8-2.2
			c-0.3-0.6-0.8-1.1-1.3-1.6c-1.2-1-2.8-1.4-4.8-1.4c-1.7,0-3.1,0.4-4.1,1.3s-1.6,2.2-1.6,3.8c0,1.2,0.4,2.1,1.2,2.9
			c0.8,0.8,1.7,1.4,2.9,1.9c1.1,0.5,2.7,1.1,4.8,1.7c2.9,0.8,5.2,1.7,7,2.5s3.4,2.1,4.7,3.8c1.3,1.7,1.9,3.9,1.9,6.6
			c0,2.3-0.6,4.5-1.8,6.5s-3,3.6-5.3,4.8c-2.3,1.2-5.1,1.8-8.4,1.8c-3.1,0-5.8-0.5-8.2-1.6C419.4,110.7,417.4,109.1,416,107.2z"/>
		<path class="st12" d="M462.1,108.8c0,1.2-0.4,2.3-1.3,3.1c-0.9,0.9-1.9,1.3-3.1,1.3s-2.3-0.4-3.1-1.3c-0.9-0.9-1.3-1.9-1.3-3.1
			V72.9c0-1.2,0.4-2.2,1.3-3.1c0.9-0.8,1.9-1.3,3.1-1.3s2.3,0.4,3.1,1.3c0.9,0.8,1.3,1.9,1.3,3.1V108.8z"/>
		<path class="st12" d="M513.6,90.8c0,4.4-1,8.3-3,11.7c-2,3.4-4.7,6-8.1,8c-3.4,1.9-7.2,2.9-11.3,2.9c-4.1,0-7.9-1-11.3-2.9
			s-6.1-4.6-8.2-8c-2-3.4-3-7.3-3-11.7c0-4.4,1-8.3,3-11.7c2-3.4,4.8-6,8.2-7.9c3.4-1.9,7.2-2.9,11.3-2.9c4.2,0,8,1,11.3,2.9
			c3.4,1.9,6.1,4.5,8.1,7.9C512.6,82.5,513.6,86.4,513.6,90.8z M477.7,90.8c0,4.4,1.2,8,3.7,10.7s5.7,4,9.7,4s7.2-1.3,9.7-4
			s3.7-6.2,3.7-10.7s-1.2-8-3.7-10.6s-5.7-3.9-9.7-3.9s-7.2,1.3-9.7,3.9C478.9,82.7,477.7,86.3,477.7,90.8z"/>
		<path class="st12" d="M551.9,113.3c-1.8,0-3.2-0.8-4.4-2.3l-17.9-27.2c-0.5-0.2-0.7-0.1-0.7,0.2v24.9c0,1.2-0.4,2.3-1.3,3.1
			c-0.9,0.9-1.9,1.3-3.1,1.3c-1.2,0-2.3-0.4-3.1-1.3c-0.9-0.9-1.3-1.9-1.3-3.1v-35c0-1.5,0.5-2.8,1.6-3.8c1-1,2.3-1.6,3.8-1.6
			c1.9,0,3.5,0.9,4.8,2.6l17.9,27.1c0.4,0.2,0.6,0.1,0.6-0.2V72.9c0-1.2,0.4-2.3,1.3-3.1c0.9-0.9,1.9-1.3,3.1-1.3
			c1.2,0,2.3,0.4,3.1,1.3c0.9,0.9,1.3,1.9,1.3,3.1v34.7c0,1.6-0.6,2.9-1.7,4.1C554.9,112.7,553.5,113.3,551.9,113.3z"/>
	</g>
</g>
<g>
	<g>
		<g>
			<path class="st2" d="M83.9,150.1c-16.3-0.1-31.1,9.8-37.3,24.8c-1.7,4.2-2.7,8.6-3,13.1c-0.1,1.9,2.9,1.9,3,0
				c0.9-14.8,10.8-28,24.9-32.8c4-1.4,8.2-2.1,12.4-2C85.8,153.1,85.8,150.1,83.9,150.1L83.9,150.1z"/>
		</g>
	</g>
	<g>
		<g>
			<path class="st2" d="M179.7,360.7c-2-0.1-4.1-0.2-6.1-0.1c-2.6,0.1-5.4,0-8,0.7c-2.2,0.6-3.9,1.9-4.7,4c-0.7,1.9-0.8,4.1-0.7,6.2
				c0.1,2.3,0.4,4.5,0.8,6.7c0.1,0.8,1.1,1.2,1.8,1c0.9-0.2,1.2-1,1-1.8c-0.5-3.3-1.2-7-0.4-10.3c0.2-0.6,0.4-1.3,0.7-1.7
				c0.5-0.6,1.3-0.9,2.2-1.2c2.2-0.6,4.6-0.5,6.9-0.6c2.1-0.1,4.2,0,6.4,0.1C181.6,363.8,181.6,360.8,179.7,360.7L179.7,360.7z"/>
		</g>
	</g>
	<g>
		<g>
			<path class="st2" d="M153.2,250.6c7,11.8,7,27.2-0.1,39c-1,1.7,1.6,3.2,2.6,1.5c7.6-12.7,7.7-29.3,0.1-42
				C154.8,247.4,152.2,248.9,153.2,250.6L153.2,250.6z"/>
		</g>
	</g>
	<g>
		<g>
			<path class="st2" d="M220.2,174.5c-3.7,15.1-7.4,30.3-11.2,45.4c-0.5,1.9,2.4,2.7,2.9,0.8c3.7-15.1,7.4-30.3,11.2-45.4
				C223.6,173.4,220.7,172.6,220.2,174.5L220.2,174.5z"/>
		</g>
	</g>
	<g>
		<g>
			<path class="st2" d="M223.7,166.6c1.9,0,1.9-3,0-3C221.8,163.6,221.8,166.6,223.7,166.6L223.7,166.6z"/>
		</g>
	</g>
	<g>
		<g>
			<path class="st2" d="M356,175.1c-0.2,15.6-0.5,31.2-0.7,46.7c0,1.9,3,1.9,3,0c0.2-15.6,0.5-31.2,0.7-46.7
				C359,173.1,356,173.1,356,175.1L356,175.1z"/>
		</g>
	</g>
	<g>
		<g>
			<path class="st2" d="M357.3,166.6c1.9,0,1.9-3,0-3C355.3,163.6,355.3,166.6,357.3,166.6L357.3,166.6z"/>
		</g>
	</g>
	<g>
		<g>
			<path class="st2" d="M478.5,175.1c-0.2,15.6-0.5,31.2-0.7,46.7c0,1.9,3,1.9,3,0c0.2-15.6,0.5-31.2,0.7-46.7
				C481.6,173.1,478.6,173.1,478.5,175.1L478.5,175.1z"/>
		</g>
	</g>
	<g>
		<g>
			<path class="st2" d="M479.8,166.6c1.9,0,1.9-3,0-3C477.9,163.6,477.9,166.6,479.8,166.6L479.8,166.6z"/>
		</g>
	</g>
	<g>
		<g>
			<path class="st2" d="M567.7,150.2c1.8-0.2,3.6-0.2,5.4,0.1c1.6,0.3,3.4,0.8,4.7,1.8c1.3,1,1.6,2.5,1.8,4c0.3,2,0.4,4,0.3,6
				c-0.1,1.9,2.9,1.9,3,0c0.1-2.3-0.1-4.6-0.5-6.9c-0.4-2-1-3.9-2.7-5.3c-1.6-1.3-3.6-2-5.5-2.4c-2.2-0.5-4.4-0.6-6.6-0.3
				c-0.8,0.1-1.5,0.6-1.5,1.5C566.2,149.5,566.8,150.3,567.7,150.2L567.7,150.2z"/>
		</g>
	</g>
	<g>
		<g>
			<path class="st2" d="M594.4,392.2c-0.2,15.6-0.5,31.2-0.7,46.7c0,1.9,3,1.9,3,0c0.2-15.6,0.5-31.2,0.7-46.7
				C597.4,390.2,594.4,390.2,594.4,392.2L594.4,392.2z"/>
		</g>
	</g>
	<g>
		<g>
			<path class="st2" d="M595.7,383.7c1.9,0,1.9-3,0-3C593.7,380.7,593.7,383.7,595.7,383.7L595.7,383.7z"/>
		</g>
	</g>
	<g>
		<g>
			<path class="st2" d="M683.5,367.4c1.8-0.2,3.6-0.2,5.4,0.1c1.6,0.3,3.4,0.8,4.7,1.8c1.3,1,1.6,2.5,1.8,4c0.3,2,0.4,4,0.3,6
				c-0.1,1.9,2.9,1.9,3,0c0.1-2.3-0.1-4.6-0.5-6.9c-0.4-2-1-3.9-2.7-5.3c-1.6-1.3-3.6-2-5.5-2.4c-2.2-0.5-4.4-0.6-6.6-0.3
				c-0.8,0.1-1.5,0.6-1.5,1.5C682,366.6,682.7,367.5,683.5,367.4L683.5,367.4z"/>
		</g>
	</g>
	<g>
		<g>
			<path class="st2" d="M424.5,395.4c0,14.6,0,29.2,0,43.8c0,1.9,3,1.9,3,0c0-14.6,0-29.2,0-43.8
				C427.5,393.5,424.5,393.5,424.5,395.4L424.5,395.4z"/>
		</g>
	</g>
	<g>
		<g>
			<path class="st2" d="M425.2,388.8c1.9,0,1.9-3,0-3C423.3,385.8,423.3,388.8,425.2,388.8L425.2,388.8z"/>
		</g>
	</g>
	<g>
		<g>
			<path class="st2" d="M561.8,514.7c0.2,4.6,0.4,9.7-2.4,13.6c-2.6,3.7-7.4,4.1-11.5,3.6c-0.8-0.1-1.5,0.8-1.5,1.5
				c0,0.9,0.7,1.4,1.5,1.5c5.1,0.6,10.5-0.3,13.8-4.6c3.4-4.5,3.4-10.3,3.2-15.7C564.7,512.8,561.7,512.8,561.8,514.7L561.8,514.7z"
				/>
		</g>
	</g>
</g>
</svg>
